<svg clip-rule="evenodd" fill-rule="evenodd" height="512" image-rendering="optimizeQuality" shape-rendering="geometricPrecision" text-rendering="geometricPrecision" viewBox="0 0 1707 1707" width="512" xmlns="http://www.w3.org/2000/svg"><g id="Layer_x0020_1"><path d="m1108 969 58 100c12 22-13 45-33 31l-94-54 17-63zm538-113c13 0 24-10 24-23s-11-23-24-23h-90v-32h96c13 0 23-11 23-23 0-13-10-24-23-24h-119c-13 0-24 11-24 24v161c0 13 11 24 24 24h123c13 0 23-11 23-24 0-12-10-23-23-23h-100v-37zm-669-833c0-13-10-23-23-23s-24 10-24 23v97l-74-102c-8-12-21-21-36-10-6 4-9 11-9 19v165c0 13 10 24 23 24s23-11 23-24v-94l77 106c4 7 11 12 20 12 13 0 23-11 23-24zm-904 721c-3-12-16-20-28-16-13 3-20 16-17 28l45 166c8 29 39 32 46 7l35-103 33 103c7 23 39 21 44-1l50-173c4-13-3-25-16-29-12-3-25 4-29 16l-28 100-31-97c-5-23-38-25-45-2l-33 98zm819 963c-41 0-75-34-75-76 0-13 10-23 23-23s23 10 23 23c0 16 13 29 29 29s29-13 29-29c0-22-16-26-33-30-34-8-68-16-68-74 0-42 34-75 75-75 42 0 76 34 76 75 0 13-11 23-23 23-13 0-24-10-24-23 0-16-13-29-29-29-15 0-28 13-28 29 0 21 16 25 32 29 34 8 69 16 69 75 0 42-34 76-76 76zm2-1438c313 0 566 254 566 566 0 313-253 567-566 567s-567-254-567-567c0-312 254-566 567-566zm0 47c-287 0-520 232-520 519 0 288 233 520 520 520s520-232 520-520c0-287-233-519-520-519zm-448 495 332-77 94-350c6-24 40-23 45 1l91 338 336 90c24 6 23 40-1 45l-325 87-92 342c-6 24-40 23-45-1l-89-331-349-98c-24-7-21-42 3-46zm177 260 61-98 70 20 13 48-114 64c-21 12-44-14-30-34zm62-363-63-110c-13-22 13-45 34-31l102 60-18 68zm345-84 99-57c21-12 45 14 30 34l-57 99-56-15z" fill-rule="nonzero"/></g></svg>