<?xml version="1.0" encoding="UTF-8"?>
<svg xmlns="http://www.w3.org/2000/svg" id="Icons" viewBox="0 0 60 60" width="512" height="512"><rect x="2" y="16" width="30" height="3" rx="1"/><path d="M28.658,12.553A.994.994,0,0,0,27.764,12H6.236a.994.994,0,0,0-.894.553L4.618,14H29.382Z"/><path d="M8.78,58H22.726A7.976,7.976,0,0,1,20,52V51a2.981,2.981,0,0,1,1.08-2.286,3.953,3.953,0,0,1,.013-5.444,2.928,2.928,0,0,1-1.082-2.008,2.963,2.963,0,0,1,.773-2.257A2.98,2.98,0,0,1,20,37a13.01,13.01,0,0,1,9.657-12.548L29.921,21H4.08L6.787,56.153A2.009,2.009,0,0,0,8.78,58Z"/><path d="M58,51a1,1,0,0,0-1-1H23a1,1,0,0,0-1,1v1a6.006,6.006,0,0,0,6,6H52a6.006,6.006,0,0,0,6-6Z"/><path d="M18,10V4.6a1,1,0,0,0-.725-.961L11.6,2.015a.379.379,0,0,0-.462.256l-.344,1.205a.375.375,0,0,0,.257.462l4.229,1.208A1,1,0,0,1,16,6.107V10Z"/><path d="M56,44H52.918a1.631,1.631,0,0,0-1.012.354l-2.652,2.118a2.4,2.4,0,0,1-3.007,0l-2.653-2.119A1.631,1.631,0,0,0,42.582,44H24a2,2,0,0,0,0,4H56a2,2,0,0,0,0-4Z"/><path d="M47,26H33A11.013,11.013,0,0,0,22,37a1,1,0,0,0,1,1H57a1,1,0,0,0,1-1A11.013,11.013,0,0,0,47,26ZM33,34H32a1,1,0,0,1,0-2h1a1,1,0,0,1,0,2Zm3-4H35a1,1,0,0,1,0-2h1a1,1,0,0,1,0,2Zm6,3H41a1,1,0,0,1,0-2h1a1,1,0,0,1,0,2Z"/><path d="M23,40a.965.965,0,0,0-.694.287.98.98,0,0,0-.3.806A1.082,1.082,0,0,0,23.112,42h19.47a3.636,3.636,0,0,1,2.26.792l2.652,2.117a.411.411,0,0,0,.513,0l2.651-2.116A3.636,3.636,0,0,1,52.918,42H57a.959.959,0,0,0,.693-.287.979.979,0,0,0,.3-.8h0A1.083,1.083,0,0,0,56.888,40Z"/></svg>
