<svg id="Layer_1" enable-background="new 0 0 100 100" viewBox="0 0 100 100" xmlns="http://www.w3.org/2000/svg"><path d="m32.5978279 72.5719604-12.5140762 4.004509c-3.2036057 1.0011215-4.9055185 4.404953-3.9043922 7.6085587.8008995 2.6029205 3.2036037 4.2047272 5.7064171 4.2047272.6006756 0 1.2013531-.1001129 1.9021397-.3003464l15.417345-5.0056305c1.8020248-.6006699 3.3037186-2.0022507 3.9043961-3.8042831l2.1023598-6.2069778-9.4105873-10.0112648z"/><ellipse cx="62.636" cy="13.112" rx="10.612" ry="10.612"/><path d="m84.0557251 44.2400856c-.4004517-2.8031578-2.9032745-4.7052994-5.606308-4.3048439l-7.0078812.9010124-3.8042831-6.8076591c-1.601799-2.9032669-4.3048439-5.2058582-7.5084496-6.3070965l-7.7086716-2.7030411c-2.9032669-1.0011272-6.0067596-1.0011272-8.9100227-.1001148l-11.5129547 3.8042812c-1.4015751.4004517-2.5028152 1.5016918-3.0033779 2.8031559l-4.9055195 11.2126122c-1.1012383 2.5028152.1001148 5.5061989 2.6029301 6.6074333 2.5028152 1.1012383 5.5061932-.1001091 6.6074314-2.6029243l4.0045052-9.2103653 5.7064209-1.9021416-4.0045052 17.2193756c-.5005646 2.0022507.1001129 4.0045052 1.5016899 5.5061951l14.3161049 15.3172378-2.0022545 17.1192551c-.4004516 3.3037185 2.0022545 6.3070984 5.3059693 6.7075424h.7007904c3.003376 0 5.606308-2.302597 6.0067596-5.3059692l2.3025894-19.9224167c.2002258-1.8020325-.400444-3.5039444-1.6017914-4.8054123l-9.6108131-10.2114906c0-.1001091 0-.1001091.1001091-.2002258l5.2058563-14.1158791 3.2036057 5.7064209c.9010162 1.6018028 2.6029282 2.6029243 4.4049606 2.6029243h.7007828l10.3116074-1.401577c2.6029129-.4004326 4.6051635-2.9032478 4.2047195-5.6062889z"/></svg>