<svg id="aa07cd0f-1efc-4fa7-af69-08217ee2698e" viewBox="0 0 64 64" xmlns="http://www.w3.org/2000/svg" data-name="glyph"><path d="m42.90677 15.455a5.75276 5.75276 0 0 0 5.74911-5.749c-.26709-7.60844-11.226-7.6074-11.49822.0001a5.759 5.759 0 0 0 5.74911 5.7489z"/><path d="m55.22485 25.80142a3.54376 3.54376 0 0 0 -4.5778-1.22987l-3.66029 1.8448a.99116.99116 0 0 1 -1.33722-.42947l-3.18201-6.24688a6.77889 6.77889 0 0 0 -2.45974-2.65489l-2.16686-1.33728a6.72053 6.72053 0 0 0 -3.3577-.98579l-8.65779-.205c-4.1861-.16867-5.86529 4.16427-8.20882 6.93988a3.87 3.87 0 0 0 1.09329 5.58318 3.77368 3.77368 0 0 0 5.10481-1.01514l1.6398-2.33278a3.84231 3.84231 0 0 1 3.26983-1.63986l.45879.00977-6.89109 13.92859a.207.207 0 0 1 -.27333.08787l-7.72072-3.74816a4.194 4.194 0 0 0 -3.30891-.17568 4.28511 4.28511 0 0 0 -.61481 7.7305l7.44732 4.12879a8.49663 8.49663 0 0 0 10.97108-2.46949c1.15171-1.55325 9.68273-12.972 9.68273-12.972l2.91846 4.58749a3.84627 3.84627 0 0 0 4.95842 1.38608l7.467-3.67983a3.57673 3.57673 0 0 0 1.40556-5.10483z"/><path d="m36.29872 38.85155-1.94239-1.44463s-4.17233 5.75718-5.17312 6.70576l1.88379 1.14193a2.39238 2.39238 0 0 1 1.07366 2.001l.05856 8.87256a3.93553 3.93553 0 0 0 7.86724.09749l.283-8.99936a10.02544 10.02544 0 0 0 -4.05074-8.37475z"/></svg>