<?xml version="1.0" standalone="no"?>
<!DOCTYPE svg PUBLIC "-//W3C//DTD SVG 20010904//EN"
 "http://www.w3.org/TR/2001/REC-SVG-20010904/DTD/svg10.dtd">
<svg version="1.0" xmlns="http://www.w3.org/2000/svg"
 width="519.000000pt" height="251.000000pt" viewBox="0 0 519.000000 251.000000"
 preserveAspectRatio="xMidYMid meet">

<g transform="translate(0.000000,251.000000) scale(0.100000,-0.100000)"
fill="#000000" stroke="none">
<path d="M835 2330 c-388 -6 -375 -3 -420 -93 -27 -56 -45 -181 -45 -319 0
-103 -6 -108 -120 -108 -99 0 -134 -9 -150 -40 -44 -81 -74 -460 -51 -635 19
-144 50 -264 72 -278 17 -11 19 -25 19 -128 0 -169 -8 -163 210 -167 212 -5
213 -4 254 112 6 18 9 17 36 -9 21 -20 30 -38 30 -61 0 -62 30 -188 60 -252
35 -75 120 -163 197 -205 108 -58 273 -81 395 -56 121 25 241 106 303 204 57
89 78 159 80 268 3 107 11 124 67 148 37 15 32 21 118 -129 33 -59 69 -118 79
-131 l18 -23 639 -6 c637 -5 827 2 862 30 6 6 24 32 39 59 l26 49 97 0 98 0 7
-45 c41 -276 276 -453 570 -432 87 6 177 33 228 68 63 43 139 125 166 179 54
106 66 156 65 278 -1 92 1 112 12 108 21 -8 286 -9 306 -1 29 11 40 60 41 184
2 119 2 121 -26 148 -25 26 -34 28 -129 33 l-101 5 -4 40 c-2 22 -12 58 -22
80 -17 39 -17 44 1 130 47 223 -14 313 -228 335 -102 11 -991 41 -1199 40 -77
0 -149 3 -160 6 -12 3 -46 50 -88 122 -131 227 -267 447 -292 472 l-25 25
-848 0 c-466 1 -1000 -2 -1187 -5z m1047 -425 c-1 -209 -2 -384 -2 -390 0 -11
-1414 -21 -1450 -10 -21 7 -21 9 -15 148 11 270 26 482 36 522 15 58 42 86 92
96 23 4 316 8 651 9 336 0 611 2 613 4 2 2 20 3 40 2 l37 -1 -2 -380z m905
368 c4 -10 65 -126 137 -258 71 -132 149 -277 173 -323 l43 -83 0 -370 0 -370
-487 7 -488 7 -35 41 c-19 22 -64 72 -98 111 -35 38 -70 83 -79 99 -20 38 -22
89 -27 664 l-5 492 430 0 c400 0 430 -1 436 -17z m88 -63 c21 -44 40 -78 43
-76 2 2 -13 36 -32 75 -20 39 -32 71 -27 71 6 0 36 -44 67 -97 32 -54 117
-195 189 -313 127 -208 132 -217 139 -285 4 -38 12 -76 19 -83 10 -13 87 -13
537 -6 825 14 926 13 983 -11 47 -19 48 -21 43 -55 -4 -19 -9 -62 -12 -96 l-7
-61 -41 14 c-33 12 -130 15 -486 16 -439 1 -446 1 -486 -20 -63 -34 -113 -98
-240 -309 -65 -107 -123 -194 -131 -194 -9 0 -5 15 14 53 33 62 44 87 38 87
-2 0 -20 -31 -40 -69 -24 -45 -44 -71 -58 -75 -31 -7 -1198 -8 -1244 0 -33 6
-47 17 -108 96 -76 98 -112 132 -54 53 95 -131 99 -139 88 -146 -18 -11 -37 0
-45 24 -11 37 -81 133 -155 215 -38 42 -97 116 -129 164 -50 71 -69 91 -112
112 l-52 26 -464 0 -465 0 -31 -33 c-30 -32 -54 -91 -126 -302 -24 -70 -31
-80 -51 -80 -22 0 -24 3 -22 50 5 91 -11 108 -18 20 -4 -44 -5 44 -3 196 2
152 6 283 10 293 6 15 62 16 745 16 l739 -1 0 -167 c0 -198 -8 -180 150 -361
l105 -121 510 2 510 3 3 375 c2 258 -1 387 -8 415 -10 33 -239 469 -327 623
-18 31 -21 42 -11 42 8 0 31 -36 53 -80z m-2640 -562 l-5 -113 15 64 c12 53
18 89 24 154 1 4 11 7 22 7 18 0 20 -4 16 -32 -3 -18 -8 -64 -11 -103 l-6 -70
15 50 c8 27 17 74 21 102 4 37 11 53 21 53 13 0 14 -18 8 -127 -4 -71 -9 -130
-11 -132 -2 -2 -32 -7 -66 -10 l-63 -6 -6 -146 c-4 -81 -10 -152 -14 -159 -5
-7 -8 -41 -7 -74 1 -106 -17 -9 -24 129 -9 150 -19 185 -29 95 -7 -65 6 -241
25 -342 12 -62 12 -78 2 -78 -8 0 -42 132 -42 166 0 10 -7 37 -15 59 -20 57
-20 305 1 415 9 47 19 101 21 120 5 36 37 90 47 79 4 -3 2 -30 -4 -59 -12 -66
-12 -214 0 -185 5 11 9 42 9 68 1 72 30 187 47 187 11 0 13 -21 9 -112z m3580
7 c387 -10 879 -34 916 -45 49 -14 85 -43 97 -80 11 -30 11 -30 -20 -25 -17 3
-40 11 -52 17 -15 8 -218 9 -737 4 -712 -7 -718 -7 -728 13 -15 27 -14 104 2
120 9 9 47 11 157 7 80 -3 244 -8 365 -11z m-3476 -307 l-1 -93 -20 64 c-28
90 -33 69 -9 -34 23 -96 25 -114 12 -100 -17 19 -56 150 -53 180 6 66 11 75
42 75 l30 0 -1 -92z m-56 -95 c3 -16 9 -36 12 -45 6 -14 2 -18 -16 -18 -23 0
-24 3 -21 50 4 53 16 59 25 13z m1332 -5 c15 -7 77 -82 147 -177 67 -91 143
-194 169 -228 55 -70 51 -78 -35 -67 -62 8 -74 17 -99 73 -33 76 -147 239
-190 275 -73 60 -71 60 -464 64 -344 4 -363 3 -407 -16 -52 -23 -75 -62 -120
-199 -19 -56 -33 -83 -43 -83 -9 0 -13 6 -9 15 12 34 37 137 33 141 -2 3 -15
-29 -28 -70 -13 -42 -30 -76 -36 -76 -9 0 -7 15 8 53 11 28 37 95 57 147 19
52 46 110 59 127 l24 33 417 3 c453 3 479 3 517 -15z m3163 -21 c21 -12 40
-34 52 -60 30 -70 29 -78 -12 -92 -33 -12 -38 -12 -56 8 -25 29 -35 58 -17 51
20 -8 55 14 55 35 0 9 -11 28 -25 41 -22 20 -28 22 -51 11 -22 -9 -25 -17 -22
-41 4 -24 1 -29 -11 -26 -92 27 -662 38 -761 15 -82 -19 -138 -81 -267 -298
-59 -99 -63 -104 -98 -106 -20 -1 -38 2 -41 6 -5 8 50 96 201 327 53 80 109
128 166 142 19 5 219 8 444 7 376 -2 413 -4 443 -20z m-23 -37 c3 -5 1 -10 -4
-10 -6 0 -11 5 -11 10 0 6 2 10 4 10 3 0 8 -4 11 -10z m-4425 -175 l0 -115
-42 3 -42 3 -1 99 c0 55 1 106 3 113 3 7 21 12 43 12 l39 0 0 -115z m820 107
c0 -4 -31 -12 -69 -18 -93 -15 -189 -62 -256 -124 l-54 -52 10 37 c6 20 9 41
7 47 -2 6 -12 -20 -23 -58 -10 -38 -28 -89 -40 -114 -13 -25 -28 -65 -34 -88
-7 -23 -16 -40 -20 -38 -4 3 5 54 21 113 38 147 49 195 45 199 -2 2 -20 -54
-41 -124 -21 -70 -41 -137 -44 -149 -5 -15 -11 -20 -20 -14 -23 14 78 332 116
363 8 7 40 16 71 19 85 9 331 10 331 1z m337 -8 c23 -3 54 -15 69 -26 15 -12
69 -87 122 -167 52 -80 99 -152 104 -158 8 -10 4 -13 -16 -13 -20 0 -29 8 -39
33 -8 17 -25 41 -37 52 -18 15 -14 6 13 -37 35 -55 36 -58 17 -68 -15 -8 -22
-6 -34 12 -9 12 -16 32 -16 43 0 40 -70 133 -147 195 -84 68 -148 103 -217
121 -25 6 -46 14 -46 18 0 7 162 4 227 -5z m2738 11 c-5 -3 -42 -11 -82 -19
-39 -8 -96 -26 -127 -41 -105 -50 -214 -181 -250 -303 -12 -39 -25 -62 -34
-62 -9 0 -12 6 -7 18 21 52 37 104 32 108 -3 3 -13 -19 -22 -48 -10 -29 -21
-57 -26 -62 -13 -15 -11 6 6 53 19 56 3 44 -19 -14 -10 -25 -24 -45 -32 -45
-8 0 -14 3 -14 6 0 13 133 240 176 300 62 88 80 97 204 104 126 8 209 10 195
5z m474 -20 c58 -34 91 -85 103 -157 13 -73 4 -124 -25 -142 -15 -9 -21 -6
-37 14 -11 14 -20 33 -20 44 0 22 -112 135 -172 173 -59 37 -164 73 -215 73
-23 0 -45 5 -48 11 -5 7 50 10 186 7 172 -3 198 -5 228 -23z m-3386 -85 c205
-63 354 -298 318 -502 -24 -135 -105 -254 -212 -307 -80 -40 -153 -54 -263
-49 -80 3 -99 7 -160 38 -104 52 -177 130 -212 227 -26 69 -29 91 -29 188 1
103 3 114 32 176 18 36 50 85 72 110 106 120 292 169 454 119z m3086 1 c120
-37 215 -119 271 -235 113 -232 -4 -533 -233 -601 -141 -42 -262 -38 -372 13
-89 42 -147 99 -188 186 -70 146 -76 292 -19 409 57 114 170 210 279 236 69
16 197 12 262 -8z m669 -16 c8 -3 12 -31 12 -92 0 -139 5 -133 -111 -133 -81
0 -99 3 -99 15 0 12 13 15 58 15 97 0 118 14 29 20 l-78 5 -4 63 -3 62 68 0
c97 0 99 18 3 22 -62 2 -78 6 -81 19 -3 14 9 16 95 12 54 -3 104 -6 111 -8z
m-4498 -172 c0 -23 -51 -188 -60 -197 -12 -12 -157 -12 -247 -1 l-51 6 -7 84
c-4 47 -5 91 -1 100 4 13 33 15 186 15 99 0 180 -3 180 -7z m3000 -118 c0 -3
-28 -54 -61 -113 l-62 -107 -721 0 -721 0 -27 53 c-15 29 -38 73 -52 97 -15
24 -26 48 -26 54 0 7 39 11 113 11 l113 0 79 -50 79 -50 176 0 c97 0 272 3
389 7 l212 6 76 43 76 44 166 3 c91 1 172 4 179 5 6 1 12 0 12 -3z m-420 -10
c0 -3 -28 -19 -62 -35 l-63 -30 -363 0 -363 0 -49 25 c-28 14 -50 30 -50 35 0
6 170 10 475 10 261 0 475 -2 475 -5z m597 -72 c-3 -23 -9 -28 -30 -27 -98 2
-127 5 -127 14 0 5 23 7 53 5 l52 -5 -45 14 -45 13 55 5 c30 2 63 5 73 6 14 2
17 -4 14 -25z"/>
<path d="M562 2253 c32 -2 84 -2 116 0 31 2 5 3 -58 3 -63 0 -89 -1 -58 -3z"/>
<path d="M903 2221 c-396 -7 -378 -3 -394 -83 -4 -23 -8 -130 -9 -236 0 -213
4 -231 62 -251 21 -7 226 -11 619 -11 l589 0 15 24 c13 20 17 63 18 248 2 198
0 227 -16 260 -10 20 -26 40 -35 44 -22 10 -403 12 -849 5z m-33 -78 c15 -20
18 -22 11 -6 -6 12 -11 24 -11 27 0 12 236 6 248 -6 9 -9 12 -9 12 0 0 17 606
17 616 0 4 -6 7 -99 8 -207 l0 -195 -169 3 c-143 2 -171 5 -182 19 -12 16 -13
16 -7 0 6 -17 -4 -18 -125 -18 -116 0 -132 2 -138 18 -4 9 -25 42 -47 72 -23
30 -52 71 -65 90 -13 19 -37 53 -52 75 -16 22 -40 54 -54 70 -18 20 -15 14 8
-20 121 -176 194 -282 201 -293 6 -10 -50 -12 -279 -10 l-286 3 -2 170 c-1 94
1 182 6 197 7 26 11 27 80 31 204 9 203 9 227 -20z m880 -423 c0 -12 -9 -22
-22 -25 -13 -3 -282 -4 -598 -3 -503 3 -575 5 -575 18 0 13 73 16 575 20 316
3 585 6 598 8 16 1 22 -3 22 -18z"/>
<path d="M1141 2124 c42 -58 173 -230 182 -239 21 -21 -9 23 -90 132 -46 62
-89 115 -95 119 -6 4 -5 -1 3 -12z"/>
<path d="M1733 2055 c0 -33 2 -45 4 -27 2 18 2 45 0 60 -2 15 -4 0 -4 -33z"/>
<path d="M580 1854 c0 -16 5 -36 10 -44 6 -10 7 -2 3 25 -7 49 -13 58 -13 19z"/>
<path d="M1340 1856 c0 -2 8 -10 18 -17 15 -13 16 -12 3 4 -13 16 -21 21 -21
13z"/>
<path d="M453 1610 c0 -36 2 -50 4 -32 2 17 2 47 0 65 -2 17 -4 3 -4 -33z"/>
<path d="M491 1583 c-1 -17 4 -35 9 -38 11 -7 11 9 0 45 -8 24 -8 24 -9 -7z"/>
<path d="M2502 2273 c48 -2 129 -2 180 0 51 1 12 3 -87 3 -99 0 -141 -2 -93
-3z"/>
<path d="M2014 2195 c-11 -27 -10 -513 1 -524 6 -5 185 -11 453 -13 409 -4
445 -3 472 13 40 25 51 49 53 125 2 65 1 66 -36 97 -20 18 -37 37 -37 42 0 32
-139 249 -170 265 -11 6 -161 10 -375 10 -306 0 -356 -2 -361 -15z m178 -182
c47 -71 109 -160 137 -200 l51 -72 -53 -6 c-28 -3 -95 -5 -147 -3 l-95 3 -3
160 c-3 162 3 245 17 245 4 0 46 -57 93 -127z m176 115 c9 -9 12 -9 12 0 0 9
45 12 173 12 l172 -1 65 -96 c76 -113 76 -113 57 -113 -7 0 -31 25 -52 55 -21
31 -42 58 -47 61 -13 8 9 -33 38 -73 29 -38 29 -43 5 -43 -47 0 -51 -8 -51
-101 l0 -89 -171 0 c-166 0 -172 1 -189 23 -9 12 -51 72 -92 132 -40 61 -90
133 -109 160 -62 88 -64 85 64 85 75 0 117 -4 125 -12z m552 -278 c23 -23 27
-77 7 -104 -13 -18 -121 -49 -131 -38 -8 8 -7 147 1 155 3 4 28 7 55 7 35 0
54 -6 68 -20z"/>
<path d="M2395 2086 c10 -14 19 -26 22 -26 7 0 -17 39 -28 46 -6 3 -3 -5 6
-20z"/>
<path d="M2430 2036 c0 -2 8 -10 18 -17 15 -13 16 -12 3 4 -13 16 -21 21 -21
13z"/>
<path d="M2516 1923 c62 -85 100 -128 69 -78 -23 37 -115 155 -121 155 -3 0
21 -35 52 -77z"/>
<path d="M2600 1806 c0 -2 8 -10 18 -17 15 -13 16 -12 3 4 -13 16 -21 21 -21
13z"/>
<path d="M2850 1780 c-9 -6 -10 -10 -3 -10 6 0 15 5 18 10 8 12 4 12 -15 0z"/>
<path d="M2890 1782 c0 -6 -12 -18 -27 -26 -17 -9 -22 -15 -12 -16 19 0 55 37
46 47 -4 3 -7 1 -7 -5z"/>
<path d="M3085 1629 c10 -18 18 -58 19 -91 1 -71 16 -78 16 -8 0 52 -19 112
-40 125 -6 4 -4 -7 5 -26z"/>
<path d="M2077 1536 c-19 -13 -44 -27 -56 -31 -52 -16 -47 -109 7 -121 15 -4
35 -14 46 -23 24 -21 91 -19 136 4 19 10 49 21 65 25 21 4 31 12 33 29 6 38
-7 71 -31 82 -12 5 -37 21 -56 34 -44 33 -97 33 -144 1z m155 -14 c9 -9 -8
-12 -72 -12 -79 1 -84 2 -65 16 23 18 118 15 137 -4z m48 -66 c0 -24 -1 -24
-117 -28 -120 -4 -153 3 -132 28 10 13 57 18 187 22 59 2 62 1 62 -22z m-85
-76 c-28 -12 -83 -12 -90 0 -4 6 16 10 52 9 42 0 52 -3 38 -9z"/>
<path d="M2010 1106 c0 -2 8 -10 18 -17 15 -13 16 -12 3 4 -13 16 -21 21 -21
13z"/>
<path d="M2109 991 c28 -32 58 -64 68 -72 10 -8 -11 19 -46 59 -34 39 -65 72
-68 72 -3 0 18 -26 46 -59z"/>
<path d="M2655 900 c38 -10 280 -10 365 0 43 4 -14 7 -165 7 -126 0 -216 -3
-200 -7z"/>
<path d="M1748 1443 c23 -2 59 -2 80 0 20 2 1 4 -43 4 -44 0 -61 -2 -37 -4z"/>
<path d="M456 1409 c-28 -33 -32 -59 -14 -92 27 -51 79 -61 128 -25 43 31 42
86 -1 122 -42 36 -81 34 -113 -5z m94 -34 c15 -19 4 -52 -21 -60 -38 -12 -65
35 -37 63 16 16 43 15 58 -3z"/>
<path d="M1808 1413 c6 -2 18 -2 25 0 6 3 1 5 -13 5 -14 0 -19 -2 -12 -5z"/>
<path d="M4703 1353 c9 -2 23 -2 30 0 6 3 -1 5 -18 5 -16 0 -22 -2 -12 -5z"/>
<path d="M4668 1323 c17 -2 47 -2 65 0 17 2 3 4 -33 4 -36 0 -50 -2 -32 -4z"/>
<path d="M3356 834 c-10 -14 -16 -28 -13 -30 2 -3 12 7 21 22 10 14 16 28 13
30 -2 3 -12 -7 -21 -22z"/>
<path d="M3395 828 l-16 -33 21 24 c11 13 20 27 20 32 0 18 -10 8 -25 -23z"/>
<path d="M2105 810 c10 -11 20 -20 23 -20 3 0 -3 9 -13 20 -10 11 -20 20 -23
20 -3 0 3 -9 13 -20z"/>
<path d="M4139 1576 c-3 -3 -170 -6 -373 -7 -202 -1 -364 -5 -359 -10 4 -4
186 -5 403 -2 217 4 385 10 375 14 -24 9 -40 11 -46 5z"/>
<path d="M918 1213 c61 -2 163 -2 225 0 61 1 11 3 -113 3 -124 0 -174 -2 -112
-3z"/>
<path d="M1831 868 c18 -27 34 -48 36 -48 7 0 -16 35 -42 65 -20 23 -19 18 6
-17z"/>
<path d="M4068 1203 c23 -2 59 -2 80 0 20 2 1 4 -43 4 -44 0 -61 -2 -37 -4z"/>
<path d="M3613 863 c-16 -27 -32 -57 -36 -68 l-7 -20 16 20 c18 23 66 115 60
115 -2 0 -17 -21 -33 -47z"/>
<path d="M270 982 c0 -35 4 -62 10 -62 6 0 8 21 4 58 -9 77 -14 78 -14 4z"/>
<path d="M1556 1027 c3 -10 9 -15 12 -12 3 3 0 11 -7 18 -10 9 -11 8 -5 -6z"/>
<path d="M4738 1016 c12 -16 22 -38 22 -50 -1 -19 -2 -18 -16 7 -22 40 -24 33
-5 -19 l16 -46 9 42 c8 38 7 44 -19 68 l-28 27 21 -29z"/>
<path d="M4713 945 c8 -16 17 -37 20 -45 4 -10 6 -8 6 6 1 12 -8 32 -19 45
l-21 24 14 -30z"/>
<path d="M1263 990 c115 -30 220 -110 282 -214 19 -33 35 -54 35 -47 0 23 -52
102 -99 149 -53 54 -157 110 -216 117 l-40 5 38 -10z"/>
<path d="M1080 926 c-97 -26 -183 -105 -220 -202 -18 -49 -21 -72 -17 -135 9
-143 73 -240 196 -298 75 -35 220 -37 292 -4 66 30 124 86 156 151 25 51 28
68 27 152 0 82 -4 102 -27 146 -83 161 -241 235 -407 190z m191 -81 c170 -58
227 -273 112 -423 -62 -82 -228 -113 -328 -61 -28 14 -54 34 -60 45 -5 11 -20
33 -31 49 -67 93 -60 232 17 319 69 79 185 107 290 71z"/>
<path d="M1092 817 c-146 -54 -191 -250 -84 -369 49 -55 102 -78 180 -78 70 0
119 19 166 66 83 84 87 222 10 313 -59 68 -184 99 -272 68z m177 -46 c105 -54
142 -187 78 -283 -28 -41 -117 -88 -169 -88 -72 0 -156 52 -180 110 -15 35
-11 146 6 178 19 37 64 78 106 97 43 19 105 13 159 -14z"/>
<path d="M1160 722 c0 -16 6 -34 13 -40 20 -17 39 2 35 34 -2 21 -9 30 -25 32
-19 3 -23 -1 -23 -26z"/>
<path d="M1074 719 c-3 -6 3 -20 14 -32 18 -17 23 -18 37 -7 14 12 14 15 -1
31 -19 21 -39 24 -50 8z"/>
<path d="M1240 690 c-9 -16 -8 -22 5 -26 18 -7 45 12 45 32 0 21 -38 17 -50
-6z"/>
<path d="M1145 644 c-21 -21 -16 -63 10 -80 16 -11 25 -11 45 -1 32 16 37 50
11 76 -25 25 -44 26 -66 5z"/>
<path d="M1033 630 c-13 -5 -23 -14 -23 -19 0 -15 35 -31 69 -31 24 0 31 4 31
20 0 13 -10 24 -26 30 -14 6 -26 10 -27 9 -1 0 -12 -4 -24 -9z"/>
<path d="M1250 606 c0 -7 7 -19 16 -26 21 -18 88 -2 92 23 3 14 -5 17 -52 17
-41 0 -56 -4 -56 -14z"/>
<path d="M1078 525 c-14 -31 0 -50 30 -40 22 6 37 38 27 55 -12 19 -45 10 -57
-15z"/>
<path d="M1164 526 c-3 -8 -4 -29 -2 -48 2 -25 8 -33 22 -33 25 0 43 59 25 81
-15 18 -38 18 -45 0z"/>
<path d="M1240 521 c0 -15 30 -41 46 -41 19 0 18 14 -4 33 -20 19 -42 22 -42
8z"/>
<path d="M761 619 c1 -24 5 -55 9 -69 6 -16 7 -1 3 40 -7 76 -13 93 -12 29z"/>
<path d="M780 496 c0 -10 40 -90 40 -80 0 15 -29 84 -35 84 -3 0 -5 -2 -5 -4z"/>
<path d="M836 377 c3 -10 9 -15 12 -12 3 3 0 11 -7 18 -10 9 -11 8 -5 -6z"/>
<path d="M860 336 c0 -2 8 -10 18 -17 15 -13 16 -12 3 4 -13 16 -21 21 -21 13z"/>
<path d="M910 286 c0 -2 8 -10 18 -17 15 -13 16 -12 3 4 -13 16 -21 21 -21 13z"/>
<path d="M4205 991 c-30 -5 -12 -8 75 -12 178 -8 249 -49 325 -189 19 -36 35
-59 35 -52 0 17 -55 120 -78 146 -70 78 -237 128 -357 107z"/>
<path d="M4153 922 c-154 -55 -230 -170 -221 -337 8 -153 91 -264 230 -306
175 -54 338 12 414 167 24 49 28 70 28 138 0 67 -5 92 -28 142 -34 75 -112
155 -181 185 -69 31 -174 35 -242 11z m228 -86 c47 -22 103 -78 125 -125 10
-20 20 -64 22 -98 11 -164 -99 -276 -273 -277 -114 0 -188 58 -238 189 -49
129 30 280 173 326 40 13 152 5 191 -15z"/>
<path d="M4170 815 c-135 -61 -174 -222 -87 -352 43 -64 101 -92 187 -92 114
-1 192 55 226 161 32 105 -19 229 -114 270 -62 28 -165 34 -212 13z m196 -50
c102 -60 129 -177 65 -282 -25 -41 -89 -73 -155 -80 -63 -6 -125 23 -170 80
-28 36 -30 43 -28 115 2 64 6 82 29 115 60 86 165 107 259 52z"/>
<path d="M4240 717 c0 -36 17 -51 39 -37 7 4 11 20 9 36 -2 21 -9 30 -25 32
-20 3 -23 -1 -23 -31z"/>
<path d="M4156 721 c-16 -25 27 -62 48 -41 7 7 7 16 0 28 -13 20 -39 27 -48
13z"/>
<path d="M4321 691 c-12 -21 -5 -31 20 -31 19 0 43 33 32 44 -13 12 -43 5 -52
-13z"/>
<path d="M4226 644 c-24 -24 -20 -61 9 -80 23 -15 27 -15 50 0 32 21 33 59 3
80 -28 20 -43 20 -62 0z"/>
<path d="M4113 630 c-13 -5 -23 -14 -23 -19 0 -15 35 -31 69 -31 24 0 31 4 31
20 0 10 -9 24 -19 30 -23 12 -28 12 -58 0z"/>
<path d="M4330 607 c0 -28 28 -41 68 -31 58 14 49 38 -15 42 -41 2 -53 0 -53
-11z"/>
<path d="M4158 525 c-14 -31 0 -50 30 -40 22 6 37 38 27 55 -12 19 -45 10 -57
-15z"/>
<path d="M4244 526 c-3 -8 -4 -29 -2 -48 2 -25 8 -33 22 -33 25 0 43 59 25 81
-15 18 -38 18 -45 0z"/>
<path d="M4320 521 c0 -15 30 -41 46 -41 19 0 18 14 -4 33 -20 19 -42 22 -42
8z"/>
<path d="M4640 715 c0 -5 5 -17 10 -25 5 -8 10 -10 10 -5 0 6 -5 17 -10 25 -5
8 -10 11 -10 5z"/>
<path d="M3856 555 c10 -86 42 -152 104 -218 32 -34 73 -70 92 -80 32 -17 32
-17 8 0 -97 70 -137 125 -170 233 -32 107 -41 125 -34 65z"/>
<path d="M4120 220 c8 -5 22 -9 30 -9 10 0 8 3 -5 9 -27 12 -43 12 -25 0z"/>
<path d="M4178 203 c7 -3 16 -2 19 1 4 3 -2 6 -13 5 -11 0 -14 -3 -6 -6z"/>
<path d="M4223 193 c9 -2 23 -2 30 0 6 3 -1 5 -18 5 -16 0 -22 -2 -12 -5z"/>
<path d="M458 783 c6 -2 18 -2 25 0 6 3 1 5 -13 5 -14 0 -19 -2 -12 -5z"/>
<path d="M448 753 c12 -2 32 -2 45 0 12 2 2 4 -23 4 -25 0 -35 -2 -22 -4z"/>
<path d="M413 723 c20 -2 54 -2 75 0 20 2 3 4 -38 4 -41 0 -58 -2 -37 -4z"/>
<path d="M388 693 c17 -2 47 -2 65 0 17 2 3 4 -33 4 -36 0 -50 -2 -32 -4z"/>
<path d="M355 660 c12 -4 48 -4 80 0 l60 7 -80 1 c-51 0 -73 -2 -60 -8z"/>
<path d="M3373 673 c20 -2 54 -2 75 0 20 2 3 4 -38 4 -41 0 -58 -2 -37 -4z"/>
<path d="M3355 640 c11 -5 43 -8 70 -8 39 0 45 2 25 8 -36 11 -122 11 -95 0z"/>
<path d="M3358 603 c12 -2 30 -2 40 0 9 3 -1 5 -23 4 -22 0 -30 -2 -17 -4z"/>
<path d="M2108 563 c18 -2 45 -2 60 0 15 2 0 4 -33 4 -33 0 -45 -2 -27 -4z"/>
<path d="M3343 563 c15 -2 37 -2 50 0 12 2 0 4 -28 4 -27 0 -38 -2 -22 -4z"/>
<path d="M3273 523 c9 -2 25 -2 35 0 9 3 1 5 -18 5 -19 0 -27 -2 -17 -5z"/>
</g>
</svg>
