<svg clip-rule="evenodd" fill-rule="evenodd" stroke-linejoin="round" stroke-miterlimit="2" viewBox="0 0 510 510" xmlns="http://www.w3.org/2000/svg"><path d="m138.779 433.269 7.663 13.54c.004.006.007.013.011.02 5.74 10.209 2.101 23.237-8.051 28.971l-25.285 14.331c-.008.005-.016.009-.024.014-10.21 5.739-23.237 2.101-28.974-8.055l-74.356-131.387c-5.792-10.218-2.153-23.257 8.011-28.997l25.315-14.332.006-.004c10.16-5.738 23.192-2.13 28.977 8.029l.011.018 6.321 11.17 67.055-38.823c19.662-11.371 39.739-18.856 61.334-11.844 21.317 6.912 56.121 21.805 91.638 28.223.353.064.701.151 1.042.262 17.41 5.637 28.018 23.226 23.264 40.905-.947 3.525-2.292 6.726-4.007 9.563 4.717-1.097 9.309-2.919 13.809-5.541l90.16-52.51c32.083-18.691 53.449-16.837 65.556-8.715 10.29 6.904 15.038 18.701 14.731 30.272-.31 11.68-5.844 22.854-15.004 28.495l-163.601 100.727c-16.977 10.478-35.573 12.934-54.838 7.794l-.009-.002s-115.474-30.948-115.474-30.948zm-52.494-92.757 44.614 78.832 18.031-10.412c1.837-1.061 4.021-1.348 6.071-.799l118.668 31.803c14.86 3.964 29.214 2.132 42.309-5.95l.007-.005 163.607-100.731c4.48-2.759 6.858-8.282 7.327-13.961.719-8.724-3.408-18.333-14.2-20.594-9.701-2.033-23.376 1.122-41.967 11.952l-90.157 52.509c-14.259 8.309-29.204 10.6-45.49 8.007-.01-.001-.019-.003-.028-.004l-11.179-1.819c-.003-.001-.007-.002-.01-.002-.108-.018-.216-.038-.323-.06-.004 0-.008-.001-.011-.002-20.329-4.173-39.182-10.315-60.103-15.938-4.264-1.146-6.796-5.538-5.65-9.802s5.538-6.795 9.802-5.649c20.487 5.505 38.954 11.542 58.845 15.65 10.641 1.195 18.392-3.271 20.836-12.377l.001-.004c2.485-9.239-3.283-18.222-12.277-21.373-36.115-6.617-71.472-21.614-93.152-28.644l-.003-.001c-17.114-5.557-32.801 1.464-48.382 10.476zm-28.119-17.2-.007-.013c-1.445-2.514-4.672-3.422-7.194-1.998l-25.309 14.328-.007.004c-2.516 1.421-3.4 4.652-1.967 7.18l.003.005 74.359 131.391.003.006c1.425 2.522 4.663 3.407 7.198 1.986l25.268-14.321.01-.006c2.523-1.425 3.408-4.664 1.986-7.2zm-10.322 14.295c5.739-.854 11.068 3.108 11.922 8.847.82 5.739-3.142 11.102-8.881 11.922-5.739.854-11.068-3.143-11.922-8.882-.82-5.738 3.143-11.067 8.881-11.887zm178.772-91.594c-1.265 2.142-2.384 4.381-3.343 6.703-1.236 2.993-4.155 4.946-7.394 4.946-3.238 0-6.157-1.953-7.394-4.946-5.386-13.04-15.819-23.473-28.859-28.859-2.993-1.236-4.945-4.156-4.945-7.394 0-3.239 1.952-6.158 4.945-7.394 8.218-3.395 15.4-8.793 20.937-15.586-2.861-11.18-4.383-22.888-4.383-34.939 0-30.567 9.784-58.924 26.382-82.099-3.034-2.08-6.295-3.854-9.737-5.276-2.993-1.237-4.946-4.156-4.946-7.394 0-3.239 1.953-6.158 4.946-7.394 13.04-5.387 23.473-15.819 28.859-28.859 1.236-2.993 4.155-4.946 7.394-4.946 3.238 0 6.157 1.953 7.394 4.946 1.642 3.976 3.754 7.709 6.265 11.131 21.735-13.633 47.407-21.526 74.86-21.526 77.881 0 141.377 63.535 141.377 141.417 0 77.881-63.495 141.377-141.377 141.377-44.905 0-85.045-21.103-110.981-53.908zm-13.266-70.339c.802-.267 1.654-.41 2.529-.41 3.239 0 6.158 1.953 7.394 4.946 5.387 13.04 15.82 23.473 28.859 28.859 2.993 1.236 4.946 4.155 4.946 7.394 0 3.238-1.953 6.158-4.946 7.394-5.568 2.3-10.66 5.52-15.088 9.47 22.904 30.671 59.477 50.594 100.553 50.594 69.068 0 125.377-56.31 125.377-125.377 0-69.069-56.308-125.417-125.377-125.417-23.008 0-44.605 6.255-63.176 17.15 3.361 2.441 7.019 4.497 10.91 6.104 2.993 1.236 4.946 4.155 4.946 7.394 0 3.238-1.953 6.157-4.946 7.394-13.04 5.386-23.473 15.819-28.859 28.859-1.237 2.993-4.156 4.945-7.394 4.945-3.239 0-6.158-1.952-7.394-4.945-1.87-4.527-4.348-8.739-7.332-12.535-13.973 20.219-22.172 44.709-22.172 71.051 0 5.809.399 11.528 1.17 17.13zm2.529 24.074c-4.573 6.481-10.233 12.142-16.714 16.715 6.481 4.573 12.141 10.234 16.714 16.715 4.574-6.481 10.234-12.142 16.715-16.715-6.481-4.573-12.141-10.234-16.715-16.715zm33.199-152.688c-4.573 6.481-10.234 12.142-16.715 16.715 6.481 4.573 12.142 10.234 16.715 16.715 4.573-6.481 10.234-12.142 16.715-16.715-6.481-4.573-12.142-10.234-16.715-16.715zm70.977 111.882 59.181-59.798.015-.015c10.792-10.848 28.406-10.901 39.254-.109 10.845 10.788 10.912 28.34.124 39.24l-.004.004c-26.318 26.556-52.436 53.272-78.873 79.709-10.844 10.844-28.451 10.844-39.295 0l-43.822-43.862c-10.84-10.839-10.855-28.384-.015-39.28l.015-.014c10.843-10.844 28.451-10.844 39.294 0zm-5.628 17-29.811-29.812c-4.597-4.597-12.06-4.599-16.66-.007-4.597 4.628-4.609 12.073-.008 16.675l43.823 43.862c4.599 4.599 12.067 4.599 16.667 0 26.419-26.419 52.519-53.117 78.819-79.655 4.575-4.623 4.563-12.067-.036-16.642-4.594-4.57-12.053-4.545-16.624.047l-64.827 65.503c-1.497 1.513-3.536 2.367-5.665 2.372-2.129.006-4.172-.837-5.678-2.343zm-161.852-82.023c5.386 13.04 15.819 23.473 28.859 28.859 2.993 1.236 4.946 4.156 4.946 7.394 0 3.239-1.953 6.158-4.946 7.394-13.04 5.386-23.473 15.819-28.859 28.859-1.236 2.993-4.156 4.946-7.394 4.946-3.239 0-6.158-1.953-7.394-4.946-5.386-13.04-15.819-23.473-28.859-28.859-2.993-1.236-4.946-4.155-4.946-7.394 0-3.238 1.953-6.158 4.946-7.394 13.04-5.386 23.473-15.819 28.859-28.859 1.236-2.993 4.155-4.946 7.394-4.946 3.238 0 6.158 1.953 7.394 4.946zm-7.394 19.538c-4.573 6.481-10.234 12.142-16.715 16.715 6.481 4.573 12.142 10.234 16.715 16.715 4.573-6.481 10.234-12.142 16.715-16.715-6.481-4.573-12.142-10.234-16.715-16.715z"/></svg>