<svg id="Layer_1" enable-background="new 0 0 512 512" viewBox="0 0 512 512" xmlns="http://www.w3.org/2000/svg"><path d="m449.37 343.71c-1.08-4.1-3.7-7.52-7.37-9.65-3.68-2.13-7.97-2.69-12.08-1.59l-10.26-38.29c45.61-22.34 77.09-69.24 77.09-123.36 0-75.68-61.58-137.25-137.28-137.25-20.2 0-39.39 4.39-56.68 12.25-31.66-29.58-72.88-45.82-116.72-45.82-45.8 0-88.74 17.72-120.91 49.88-31.69 31.69-49.41 73.99-49.91 119.12-.72 67.86 57.46 153.17 111.9 221.55-61.31 9.14-100.13 31.54-100.13 58.6 0 18.27 17.58 34.71 49.51 46.3 29.38 10.67 68.29 16.55 109.54 16.55 41.27 0 80.17-5.88 109.55-16.54 31.92-11.59 49.5-28.03 49.5-46.3 0-27.05-38.82-49.46-100.13-58.6 22.56-28.35 45.73-59.6 65.26-91.58 15.28 5.89 31.88 9.13 49.21 9.13 3.22 0 6.4-.12 9.56-.34l10.27 38.27h-.01c-4.1 1.08-7.52 3.7-9.65 7.37-2.13 3.68-2.7 7.97-1.59 12.06l26.22 97.85c2.9 10.84 9.87 19.92 19.63 25.55 6.51 3.76 13.72 5.68 21.02 5.68 3.65 0 7.31-.48 10.92-1.45 22.41-6 35.77-29.13 29.78-51.58zm-15.28 4.2c-.01 0-.01 0-.02 0l-2.07-7.72zm-104.95 101.24c0 10.72-14.57 22.41-38.97 31.27-27.67 10.05-64.64 15.58-104.1 15.58-39.44 0-76.41-5.53-104.08-15.58-24.41-8.86-38.98-20.55-38.98-31.27 0-15.91 33.57-36.47 95.87-44.04 13.02 15.97 25.55 30.81 36.69 43.99l4.4 5.21c1.52 1.8 3.75 2.84 6.11 2.84 2.35 0 4.59-1.04 6.11-2.84l4.21-4.99c11.24-13.3 23.83-28.19 36.88-44.22 62.29 7.58 95.86 28.14 95.86 44.05zm-105.38-57.69c-.03.04-.06.07-.09.11-13.25 16.35-26.09 31.58-37.6 45.2-11.32-13.4-24.18-28.66-37.54-45.15-.05-.06-.09-.12-.14-.17-20.57-25.4-42.3-53.74-61.41-82.78-37.37-56.8-56.12-103.73-55.74-139.49.45-40.93 16.51-79.28 45.22-107.99 29.15-29.14 68.07-45.2 109.6-45.2 37.88 0 73.61 13.36 101.71 37.82-15.4 9.47-28.79 21.88-39.4 36.46-17.78-13.79-39.58-21.3-62.31-21.3-56.16 0-101.85 45.69-101.85 101.85s45.69 101.85 101.85 101.85c22.73 0 44.53-7.5 62.32-21.28 12.36 16.99 28.51 31.04 47.2 40.91-21.41 34.83-47.3 68.91-71.82 99.16zm15.94-287.66c-11.15 19.83-17.52 42.7-17.52 67.02 0 24.33 6.37 47.2 17.52 67.04-15.19 12.17-34 18.82-53.63 18.82-47.34 0-85.86-38.52-85.86-85.86s38.52-85.86 85.86-85.86c19.65 0 38.45 6.66 53.63 18.84zm-1.53 67.02c0-66.87 54.41-121.27 121.29-121.27s121.29 54.4 121.29 121.27c0 66.88-54.41 121.29-121.29 121.29-66.87 0-121.29-54.41-121.29-121.29zm146.86 134.89c6.77-1.28 13.36-3.06 19.75-5.3l9.7 36.2-19.73 5.29zm56.67 171.95c-6.71 1.8-13.74.87-19.8-2.63s-10.39-9.12-12.18-15.84l-26.19-97.73 50.44-13.51 26.21 97.72c3.71 13.91-4.57 28.27-18.48 31.99zm-6-383.05c-42.03-42.03-110.41-42.03-152.44 0-20.36 20.36-31.57 47.43-31.57 76.22s11.21 55.86 31.58 76.22c21.01 21 48.61 31.5 76.22 31.5 27.6 0 55.21-10.5 76.22-31.5 41.99-42.02 41.99-110.41-.01-152.44zm-11.3 141.14c-17.9 17.89-41.41 26.83-64.92 26.83s-47.02-8.94-64.92-26.83c-17.34-17.34-26.89-40.39-26.89-64.92 0-24.52 9.55-47.58 26.89-64.92 17.9-17.9 41.41-26.85 64.92-26.85s47.02 8.95 64.91 26.84c35.78 35.81 35.78 94.06.01 129.85zm-11.47-64.93c0 4.42-3.58 7.99-7.99 7.99h-45.47c-4.41 0-7.99-3.58-7.99-7.99v-45.47c0-4.42 3.58-7.99 7.99-7.99 4.42 0 7.99 3.58 7.99 7.99v37.47h37.47c4.42.01 8 3.58 8 8z"/></svg>