<svg id="Layer_1" enable-background="new 0 0 512 512" height="512" viewBox="0 0 512 512" width="512" xmlns="http://www.w3.org/2000/svg"><path d="m236.342 217.753c0-4.418 3.582-8 8-8h23.316c4.418 0 8 3.582 8 8s-3.582 8-8 8h-23.316c-4.418 0-8-3.582-8-8zm8 83.299h23.316c4.418 0 8-3.582 8-8s-3.582-8-8-8h-23.316c-4.418 0-8 3.582-8 8s3.582 8 8 8zm259.658 64.385v31.126c0 3.31-2.038 6.277-5.126 7.466l-15.221 5.859c-2.278 8.109-5.51 15.903-9.645 23.261l6.625 14.917c1.343 3.024.686 6.563-1.654 8.903l-22.009 22.01c-2.34 2.34-5.881 2.999-8.904 1.655l-14.911-6.622c-7.358 4.135-15.155 7.366-23.269 9.646l-5.856 15.216c-1.188 3.089-4.156 5.127-7.466 5.127h-31.127c-3.31 0-6.277-2.038-7.466-5.126l-5.859-15.222c-8.108-2.278-15.902-5.509-23.26-9.644l-14.917 6.625c-3.025 1.342-6.563.686-8.903-1.654l-22.011-22.01c-2.341-2.341-2.998-5.88-1.655-8.904l6.623-14.911c-3.558-6.33-6.443-12.989-8.632-19.893-7.665.485-15.49.738-23.357.738-61.825 0-124.412-15.475-124.412-45.052v-114.948h-16.151c-3.31 0-6.277-2.038-7.466-5.126l-5.858-15.221c-8.109-2.278-15.903-5.509-23.261-9.644l-14.917 6.625c-3.026 1.343-6.563.685-8.904-1.655l-22.01-22.009c-2.34-2.34-2.997-5.879-1.654-8.904l6.622-14.912c-4.134-7.357-7.366-15.154-9.646-23.268l-15.217-5.857c-3.088-1.188-5.126-4.156-5.126-7.466v-31.126c0-3.31 2.038-6.277 5.126-7.466l15.22-5.858c2.277-8.109 5.51-15.904 9.645-23.263l-6.624-14.914c-1.343-3.024-.686-6.563 1.654-8.904l22.01-22.011c2.339-2.339 5.878-2.999 8.904-1.654l14.917 6.625c7.358-4.135 15.152-7.366 23.26-9.644l5.859-15.222c1.188-3.088 4.156-5.126 7.466-5.126h31.126c3.31 0 6.277 2.038 7.466 5.126l5.859 15.222c8.108 2.278 15.902 5.509 23.26 9.644l14.917-6.625c3.025-1.343 6.564-.686 8.903 1.654l22.011 22.01c2.341 2.34 2.998 5.879 1.655 8.904l-6.623 14.911c3.558 6.331 6.443 12.989 8.632 19.892 7.662-.485 15.488-.738 23.357-.738 61.825 0 124.412 15.475 124.412 45.051v114.949h16.151c3.31 0 6.277 2.038 7.466 5.126l5.858 15.222c8.107 2.277 15.901 5.509 23.261 9.644l14.917-6.625c3.025-1.342 6.563-.685 8.904 1.654l22.01 22.01c2.34 2.341 2.997 5.88 1.654 8.904l-6.622 14.911c4.136 7.359 7.367 15.155 9.646 23.268l15.217 5.857c3.088 1.188 5.126 4.156 5.126 7.466zm-275.021-158.468-22.01 22.01c-2.341 2.34-5.879 2.998-8.904 1.655l-14.911-6.623c-6.089 3.422-12.483 6.216-19.106 8.373 20.365 9.261 54.833 15.018 91.952 15.018 71.178 0 108.412-18.913 108.412-29.052v-52.004c-22.53 14.352-65.65 21.757-108.412 21.757-10.307 0-20.476-.422-30.345-1.249l4.979 11.21c1.343 3.025.685 6.565-1.655 8.905zm27.021-92.969c-.714 0-1.425.017-2.138.021.083.463.138.933.138 1.415v31.126c0 3.31-2.038 6.277-5.126 7.466l-15.222 5.859c-1.074 3.822-2.367 7.571-3.859 11.241 8.547.642 17.317.974 26.207.974 71.178 0 108.412-18.913 108.412-29.052s-37.234-29.05-108.412-29.05zm-135.07 124h20.141l5.36-13.926c.947-2.462 3.048-4.298 5.614-4.909 9.333-2.221 18.217-5.903 26.403-10.945 2.248-1.384 5.033-1.57 7.442-.5l13.649 6.062 14.241-14.242-6.064-13.654c-1.07-2.411-.884-5.195.499-7.441 5.043-8.19 8.725-17.072 10.944-26.396.61-2.566 2.446-4.667 4.908-5.614l13.933-5.365v-20.141l-13.927-5.36c-2.461-.947-4.298-3.047-4.908-5.614-2.222-9.333-5.904-18.217-10.946-26.403-1.384-2.247-1.57-5.031-.5-7.443l6.062-13.648-14.242-14.242-13.655 6.064c-2.409 1.071-5.195.885-7.441-.499-8.189-5.042-17.07-8.725-26.396-10.944-2.565-.611-4.666-2.447-5.613-4.909l-5.365-13.931h-20.14l-5.363 13.931c-.947 2.461-3.048 4.298-5.613 4.909-9.324 2.219-18.205 5.901-26.396 10.945-2.248 1.383-5.032 1.569-7.441.499l-13.656-6.065-14.241 14.242 6.063 13.652c1.07 2.411.884 5.195-.499 7.441-5.044 8.191-8.726 17.073-10.945 26.399-.61 2.566-2.446 4.667-4.908 5.614l-13.93 5.363v20.141l13.927 5.36c2.461.947 4.298 3.047 4.908 5.614 2.222 9.333 5.904 18.217 10.945 26.404 1.384 2.247 1.57 5.031.5 7.442l-6.062 13.649 14.241 14.241 13.655-6.064c2.409-1.07 5.195-.884 7.441.5 8.189 5.042 17.07 8.725 26.397 10.944 2.565.611 4.666 2.447 5.613 4.909zm26.658 55.649c0 10.139 37.234 29.052 108.412 29.052 9.782 0 19.404-.398 28.739-1.172l-3.373-7.594c-1.343-3.024-.686-6.563 1.654-8.903l22.01-22.011c2.34-2.341 5.879-3 8.904-1.655l14.917 6.625c7.359-4.135 15.154-7.366 23.261-9.644l5.859-15.222c1.064-2.764 3.556-4.675 6.44-5.047v-16.434c-22.53 14.352-65.65 21.757-108.412 21.757-40.938 0-78.227-6.595-100.818-17.525l-1.153 2.996c-1.064 2.765-3.557 4.675-6.441 5.048v39.729zm108.412 104.351c.714 0 1.425-.017 2.139-.021-.083-.463-.139-.933-.139-1.415v-20.213h-13.658c-4.418 0-8-3.582-8-8s3.582-8 8-8h15.51c.857-1.036 1.962-1.875 3.274-2.38l15.22-5.858c1.388-4.94 3.134-9.761 5.218-14.441-8.99.68-18.211 1.029-27.564 1.029-42.762 0-85.882-7.405-108.412-21.757v52.004c0 10.139 37.234 29.052 108.412 29.052zm232-27.07-13.927-5.361c-2.462-.947-4.298-3.048-4.909-5.614-2.22-9.33-5.901-18.214-10.944-26.403-1.384-2.246-1.57-5.03-.5-7.441l6.062-13.649-14.241-14.241-13.655 6.064c-2.409 1.071-5.193.885-7.441-.499-8.191-5.043-17.073-8.726-26.396-10.944-2.566-.61-4.667-2.446-5.614-4.908l-5.365-13.934h-20.14l-5.363 13.932c-.947 2.462-3.048 4.298-5.614 4.908-9.323 2.219-18.205 5.901-26.396 10.944-2.248 1.384-5.032 1.57-7.441.499l-13.654-6.064-14.242 14.242 6.063 13.652c1.07 2.411.884 5.195-.499 7.441-5.044 8.19-8.726 17.072-10.945 26.398-.61 2.566-2.446 4.667-4.908 5.614l-12.546 4.83c-.274 1.037-.749 1.99-1.384 2.817v17.857l13.926 5.36c2.462.947 4.299 3.048 4.909 5.613 2.222 9.335 5.904 18.218 10.946 26.404 1.384 2.247 1.57 5.031.5 7.442l-6.062 13.649 14.242 14.241 13.655-6.064c2.409-1.07 5.195-.885 7.441.499 8.189 5.043 17.07 8.725 26.396 10.944 2.566.61 4.667 2.446 5.614 4.908l5.363 13.934h20.141l5.36-13.926c.947-2.462 3.048-4.299 5.613-4.909 9.332-2.222 18.217-5.904 26.405-10.946 2.246-1.384 5.032-1.569 7.441-.499l13.648 6.062 14.241-14.241-6.064-13.655c-1.07-2.411-.884-5.195.499-7.441 5.043-8.188 8.725-17.07 10.945-26.397.61-2.565 2.446-4.666 4.908-5.613l13.932-5.365zm-39.971 10.07c0 36.96-30.069 67.029-67.029 67.029s-67.029-30.069-67.029-67.029 30.069-67.029 67.029-67.029 67.029 30.069 67.029 67.029zm-16 0c0-28.138-22.892-51.029-51.029-51.029s-51.029 22.891-51.029 51.029 22.892 51.029 51.029 51.029 51.029-22.891 51.029-51.029zm-301.029-182.971c-36.96 0-67.029-30.069-67.029-67.029s30.069-67.029 67.029-67.029 67.029 30.069 67.029 67.029-30.069 67.029-67.029 67.029zm51.029-67.029c0-28.138-22.892-51.029-51.029-51.029s-51.029 22.891-51.029 51.029 22.892 51.029 51.029 51.029 51.029-22.891 51.029-51.029zm94.355-63.644h164.254v140.489l-4.566-6.73c-2.482-3.657-7.458-4.608-11.111-2.128-3.656 2.481-4.609 7.456-2.129 11.112l19.187 28.278c1.489 2.194 3.969 3.508 6.62 3.508s5.131-1.313 6.62-3.508l19.187-28.278c2.48-3.656 1.527-8.631-2.129-11.112-3.654-2.479-8.631-1.529-11.111 2.128l-4.566 6.73v-148.489c0-4.418-3.582-8-8-8h-172.256c-4.418 0-8 3.582-8 8s3.582 8 8 8zm-41.768 377.288h-164.254v-140.489l4.566 6.73c1.548 2.28 4.064 3.509 6.627 3.509 1.547 0 3.109-.447 4.485-1.381 3.655-2.48 4.608-7.456 2.128-11.112l-19.187-28.277c-1.489-2.194-3.969-3.508-6.62-3.508s-5.131 1.314-6.62 3.508l-19.187 28.277c-2.48 3.656-1.527 8.632 2.128 11.112 3.654 2.479 8.631 1.528 11.112-2.128l4.566-6.73v148.488c0 4.418 3.582 8 8 8h172.254c4.418 0 8-3.582 8-8s-3.58-7.999-7.998-7.999z"/></svg>