<svg id="Capa_1" enable-background="new 0 0 511.996 511.996" height="512" viewBox="0 0 511.996 511.996" width="512" xmlns="http://www.w3.org/2000/svg"><g><g><path d="m434.368 252.449-107.809-30.967 37.326-67.273c.882-1.585.605-3.555-.67-4.839-1.276-1.284-3.255-1.564-4.835-.695l-67.7 37.143-31.15-107.216c-.504-1.735-2.093-2.93-3.901-2.93s-3.397 1.195-3.901 2.93l-31.15 107.212-67.7-37.143c-1.589-.866-3.555-.585-4.835.695-1.276 1.284-1.548 3.255-.675 4.839l37.326 67.273-107.808 30.971c-1.743.5-2.942 2.093-2.942 3.905s1.199 3.405 2.942 3.905l107.805 30.967-37.326 67.273c-.878 1.585-.601 3.555.675 4.835.784.784 1.824 1.199 2.881 1.199.666 0 1.337-.163 1.95-.5l67.7-37.139 31.15 107.212c.504 1.735 2.097 2.93 3.901 2.93s3.397-1.195 3.901-2.93l31.15-107.212 67.7 37.139c.614.337 1.288.5 1.954.5 1.056 0 2.101-.414 2.881-1.199 1.276-1.28 1.552-3.255.67-4.835l-37.326-67.273 107.809-30.967c1.743-.504 2.942-2.097 2.942-3.905-.001-1.809-1.196-3.406-2.935-3.905zm-124.908 7.964h94.924l-81.877 23.519zm0-8.123 13.047-23.519 81.869 23.519zm-6.31-5.368c-3.807-19.017-18.882-34.031-37.988-37.838l84.794-46.521zm-51.588 157.5-23.685-81.535 23.685-12.995zm8.126-94.53 23.689 12.995-23.689 81.535zm-4.063-13.449c-22.247 0-40.341-17.984-40.341-40.093 0-22.105 18.098-40.089 40.341-40.089s40.341 17.984 40.341 40.089c0 22.108-18.094 40.093-40.341 40.093zm4.063-93.628v-94.53l23.689 81.535zm-8.126-94.53v94.53l-23.689-12.995zm-5.474 100.799c-19.106 3.811-34.181 18.826-37.988 37.838l-46.806-84.364zm-44.303 43.206h-94.916l81.869-23.519zm-94.924 8.123h94.924l-13.052 23.519zm101.243 5.372c3.807 19.017 18.882 34.031 37.988 37.838l-24.977 13.706-59.813 32.812zm82.039 51.543-24.986-13.706c19.106-3.807 34.181-18.826 37.988-37.842l13.828 24.921 32.978 59.439z"/><path d="m255.625 233.367c-12.735 0-23.096 10.313-23.096 22.986 0 12.678 10.362 22.991 23.096 22.991 12.735 0 23.096-10.313 23.096-22.991 0-12.677-10.362-22.986-23.096-22.986zm0 37.846c-8.253 0-14.969-6.668-14.969-14.864 0-8.192 6.713-14.86 14.969-14.86s14.969 6.668 14.969 14.86c0 8.2-6.712 14.864-14.969 14.864z"/><path d="m236.596 68.053c2.243 0 4.063-1.82 4.063-4.063v-45.949l30.569 48.126c.76 1.195 2.064 1.885 3.429 1.885.378 0 .76-.053 1.134-.163 1.735-.508 2.93-2.097 2.93-3.901v-59.925c0-2.243-1.816-4.063-4.063-4.063s-4.063 1.82-4.063 4.063v45.949l-30.569-48.127c-.971-1.524-2.82-2.227-4.567-1.723-1.731.504-2.926 2.093-2.926 3.901v59.927c0 2.243 1.816 4.063 4.063 4.063z"/><path d="m488.053 283.83h-34.888v-23.417h34.892c2.247 0 4.063-1.816 4.063-4.063s-1.816-4.063-4.063-4.063h-34.892v-23.413h34.892c2.247 0 4.063-1.82 4.063-4.063s-1.816-4.063-4.063-4.063h-38.955c-2.247 0-4.063 1.82-4.063 4.063v63.08c0 2.247 1.816 4.063 4.063 4.063h38.951c2.247 0 4.063-1.816 4.063-4.063.001-2.249-1.816-4.061-4.063-4.061z"/><path d="m68.982 219.223c-2.202-.341-4.299 1.162-4.653 3.377l-6.176 38.911-8.045-36.005c-.414-1.857-2.064-3.178-3.966-3.178s-3.551 1.321-3.966 3.178l-8.045 36.005-6.176-38.911c-.349-2.215-2.43-3.718-4.653-3.377-2.215.354-3.726 2.434-3.377 4.653l9.512 59.931c.305 1.926 1.938 3.36 3.889 3.425h.13c1.894 0 3.547-1.317 3.966-3.178l8.72-39.033 8.72 39.025c.427 1.906 2.19 3.149 4.092 3.178 1.946-.065 3.58-1.499 3.889-3.425l9.516-59.931c.35-2.212-1.162-4.292-3.377-4.645z"/><path d="m258.884 476.547c-6.209-1.573-12.072-3.052-14.21-7.468-1.211-2.495-1.191-5.75.049-9.679.914-1.373 4.279-5.811 10.049-6.505 5.343-.658 10.744 2.064 13.759 6.912 1.187 1.902 3.69 2.483 5.599 1.296 1.906-1.186 2.483-3.694 1.296-5.599-4.681-7.509-13.182-11.682-21.629-10.683-10.077 1.219-15.319 9.163-16.266 10.743-.15.252-.276.52-.37.796-2.085 6.217-2.02 11.686.195 16.262 3.791 7.818 12.154 9.931 19.529 11.8 5.25 1.325 10.207 2.58 11.288 5.449 1.377 3.657-2.133 10.004-6.961 12.576-5.774 3.072-15.534 1.101-21.239-7.464-1.247-1.869-3.767-2.381-5.636-1.126-1.869 1.243-2.373 3.767-1.13 5.636 5.299 7.952 13.868 12.503 22.105 12.503 3.381 0 6.705-.764 9.724-2.377 7.582-4.043 13.86-14.319 10.739-22.609-2.572-6.838-9.849-8.679-16.891-10.463z"/></g></g></svg>