<?xml version="1.0" encoding="UTF-8" standalone="no"?>
<!-- Created with Inkscape (http://www.inkscape.org/) -->

<svg
   version="1.1"
   id="svg5502"
   xml:space="preserve"
   width="682.66669"
   height="682.66669"
   viewBox="0 0 682.66669 682.66669"
   xmlns="http://www.w3.org/2000/svg"
   xmlns:svg="http://www.w3.org/2000/svg"><defs
     id="defs5506"><clipPath
       clipPathUnits="userSpaceOnUse"
       id="clipPath5516"><path
         d="M 0,512 H 512 V 0 H 0 Z"
         id="path5514" /></clipPath></defs><g
     id="g5508"
     transform="matrix(1.3333333,0,0,-1.3333333,0,682.66667)"><g
       id="g5510"><g
         id="g5512"
         clip-path="url(#clipPath5516)"><g
           id="g5518"
           transform="translate(362.2129,445.0479)"><path
             d="m 0,0 h 112.287 c 16.568,0 30,-13.432 30,-30 v -377.548 c 0,-16.568 -13.432,-30 -30,-30 h -437 c -16.568,0 -30,13.432 -30,30 V -30 c 0,16.568 13.432,30 30,30 h 204.679"
             style="fill:none;stroke:#000000;stroke-width:15;stroke-linecap:round;stroke-linejoin:round;stroke-miterlimit:10;stroke-dasharray:none;stroke-opacity:1"
             id="path5520" /></g><g
           id="g5522"
           transform="translate(445.1943,7.5)"><path
             d="M 0,0 -297.02,297.02 -437.547,156.492"
             style="fill:none;stroke:#000000;stroke-width:15;stroke-linecap:round;stroke-linejoin:round;stroke-miterlimit:10;stroke-dasharray:none;stroke-opacity:1"
             id="path5524" /></g><g
           id="g5526"
           transform="translate(7.6475,241.3242)"><path
             d="M 0,0 101.861,101.861 8.715,195.008"
             style="fill:none;stroke:#000000;stroke-width:15;stroke-linecap:round;stroke-linejoin:round;stroke-miterlimit:10;stroke-dasharray:none;stroke-opacity:1"
             id="path5528" /></g><g
           id="g5530"
           transform="translate(504.5,353.3428)"><path
             d="M 0,0 -161.73,-166.993 -2.031,-326.692 c 1.306,3.365 2.031,7.021 2.031,10.849"
             style="fill:none;stroke:#000000;stroke-width:15;stroke-linecap:round;stroke-linejoin:round;stroke-miterlimit:10;stroke-dasharray:none;stroke-opacity:1"
             id="path5532" /></g><g
           id="g5534"
           transform="translate(427.4365,353.3428)"><path
             d="M 0,0 73.813,75.28"
             style="fill:none;stroke:#000000;stroke-width:15;stroke-linecap:round;stroke-linejoin:round;stroke-miterlimit:10;stroke-dasharray:none;stroke-opacity:1"
             id="path5536" /></g><g
           id="g5538"
           transform="translate(84.0713,445.0469)"><path
             d="m 0,0 218.774,-218.773 94.84,96.726"
             style="fill:none;stroke:#000000;stroke-width:15;stroke-linecap:round;stroke-linejoin:round;stroke-miterlimit:10;stroke-dasharray:none;stroke-opacity:1"
             id="path5540" /></g><g
           id="g5542"
           transform="translate(361.2129,445.6348)"><path
             d="m 0,0 c 0,-47.079 -38.204,-119.535 -59.017,-119.535 -21.953,0 -59.017,76.434 -59.017,119.535 0,32.511 26.423,58.865 59.017,58.865 C -26.423,58.865 0,32.511 0,0 Z"
             style="fill:none;stroke:#000000;stroke-width:15;stroke-linecap:round;stroke-linejoin:round;stroke-miterlimit:10;stroke-dasharray:none;stroke-opacity:1"
             id="path5544" /></g><g
           id="g5546"
           transform="translate(302.1963,471.4844)"><path
             d="m 0,0 c 15.198,0 27.52,-12.353 27.52,-27.591 0,-15.238 -12.322,-27.591 -27.52,-27.591 -15.199,0 -27.521,12.353 -27.521,27.591 C -27.521,-12.353 -15.199,0 0,0 Z"
             style="fill:none;stroke:#000000;stroke-width:15;stroke-linecap:round;stroke-linejoin:round;stroke-miterlimit:10;stroke-dasharray:none;stroke-opacity:1"
             id="path5548" /></g><g
           id="g5550"
           transform="translate(175.4673,212.2236)"><path
             d="m 0,0 c -7.503,3.446 -15.848,5.383 -24.65,5.383 -32.594,0 -59.017,-26.355 -59.017,-58.865 0,-43.101 37.064,-119.535 59.017,-119.535 20.813,0 59.017,72.455 59.017,119.535 0,9.406 -2.223,18.291 -6.157,26.177"
             style="fill:none;stroke:#000000;stroke-width:15;stroke-linecap:round;stroke-linejoin:round;stroke-miterlimit:10;stroke-dasharray:none;stroke-opacity:1"
             id="path5552" /></g><g
           id="g5554"
           transform="translate(150.8174,184.5908)"><path
             d="m 0,0 c 15.199,0 27.52,-12.353 27.52,-27.591 0,-15.238 -12.321,-27.591 -27.52,-27.591 -15.199,0 -27.52,12.353 -27.52,27.591 C -27.52,-12.353 -15.199,0 0,0 Z"
             style="fill:none;stroke:#000000;stroke-width:15;stroke-linecap:round;stroke-linejoin:round;stroke-miterlimit:10;stroke-dasharray:none;stroke-opacity:1"
             id="path5556" /></g></g></g></g></svg>
