<svg id="Layer_1" height="512" viewBox="0 0 32 32" width="512" xmlns="http://www.w3.org/2000/svg" data-name="Layer 1"><path d="m16.47 28h-7.47c-2.757 0-5-2.243-5-5v-16c0-2.757 2.243-5 5-5h12c2.757 0 5 2.243 5 5v9.06c0 .552-.448 1-1 1s-1-.448-1-1v-9.06c0-1.654-1.346-3-3-3h-12c-1.654 0-3 1.346-3 3v16c0 1.654 1.346 3 3 3h7.47c.552 0 1 .447 1 1s-.448 1-1 1z"/><path d="m24 31c-.153 0-.307-.035-.447-.105-.186-.093-4.553-2.329-4.553-6.895 0-2.757 2.243-5 5-5s5 2.243 5 5c0 4.565-4.367 6.802-4.553 6.895-.141.07-.294.105-.447.105zm0-10c-1.654 0-3 1.346-3 3 0 2.579 2.065 4.225 3 4.837.933-.611 3-2.257 3-4.837 0-1.654-1.346-3-3-3z"/><circle cx="24" cy="24" r="1"/><path d="m16.59 22h-.59c-.552 0-1-.447-1-1s.448-1 1-1h.59c.552 0 1 .447 1 1s-.448 1-1 1z"/><path d="m10.29 23.25h-.02c-.275-.006-.535-.124-.72-.327l-1.29-1.418c-.372-.408-.342-1.041.067-1.413.408-.371 1.041-.341 1.413.067l.579.637 1.969-1.998c.388-.394 1.021-.397 1.415-.01.393.388.398 1.021.01 1.414l-2.71 2.75c-.188.19-.445.298-.712.298z"/><path d="m21 16h-5c-.552 0-1-.448-1-1s.448-1 1-1h5c.552 0 1 .448 1 1s-.448 1-1 1z"/><path d="m10.29 17.25h-.02c-.274-.006-.535-.124-.72-.327l-1.29-1.417c-.372-.408-.342-1.041.067-1.413.408-.373 1.041-.341 1.413.067l.579.636 1.969-1.998c.388-.393 1.021-.397 1.415-.01.393.388.398 1.021.01 1.415l-2.71 2.75c-.188.19-.445.298-.712.298z"/><path d="m21 10h-5c-.552 0-1-.448-1-1s.448-1 1-1h5c.552 0 1 .448 1 1s-.448 1-1 1z"/><path d="m10.29 11.25h-.02c-.274-.006-.535-.124-.72-.327l-1.29-1.417c-.372-.408-.342-1.041.067-1.413.408-.373 1.041-.34 1.413.067l.579.636 1.969-1.998c.388-.392 1.021-.398 1.415-.01.393.388.398 1.021.01 1.415l-2.71 2.75c-.188.191-.445.298-.712.298z"/></svg>