<svg fill="none" height="24" viewBox="0 0 24 24" width="24" xmlns="http://www.w3.org/2000/svg"><path clip-rule="evenodd" d="m5.63604 5.63616c2.94562-2.94563 7.42276-3.42155 10.86436-1.43234.4782.27638.6417.88805.3654 1.36621-.2764.47816-.8881.64173-1.3662.36536-2.6774-1.54748-6.16007-1.1743-8.44935 1.11498-2.73367 2.73367-2.73367 7.16583 0 9.89953 2.28928 2.2892 5.77195 2.6624 8.44935 1.1149.4781-.2763 1.0898-.1128 1.3662.3654.2763.4782.1128 1.0898-.3654 1.3662-3.4416 1.9892-7.91874 1.5133-10.86436-1.4323-3.51472-3.5147-3.51472-9.21323 0-12.72794zm12.65686 2.65685c.3905-.39053 1.0237-.39053 1.4142 0l1.8912 1.89119c.1785.1785.3523.3522.4875.5114.1484.1749.308.3968.4021.6865.1305.4017.1305.8344 0 1.236-.0941.2898-.2537.5117-.4021.6865-.1352.1592-.309.333-.4875.5114l-1.8912 1.8912c-.3905.3905-1.0237.3905-1.4142 0s-.3905-1.0237 0-1.4142l1.2929-1.2929h-7.5858c-.5523 0-1-.4477-1-1s.4477-1 1-1h7.5858l-1.2929-1.29288c-.3905-.39052-.3905-1.02369 0-1.41421z" fill="rgb(0,0,0)" fill-rule="evenodd"/></svg>