<svg fill="none" height="64" viewBox="0 0 64 64" width="64" xmlns="http://www.w3.org/2000/svg" xmlns:xlink="http://www.w3.org/1999/xlink"><linearGradient id="paint0_linear_2236_5642" gradientUnits="userSpaceOnUse" x1="76.089" x2="24.644" y1="71.719" y2="11.534"><stop offset=".00265844" stop-color="#ff37df"/><stop offset="1" stop-color="#6e00ff"/></linearGradient><g fill="url(#paint0_linear_2236_5642)"><path d="m28 45.5c0-6.981 4.0876-13.0073 10-15.8159v-27.6841c-.1509.05467-.3003.11572-.4476.18315l-13.5524 6.2022v45.61465c.1509-.0547.3003-.1157.4476-.1832l4.674-2.139c-.7249-1.921-1.1216-4.0031-1.1216-6.1778z"/><path d="m45.5 28c6.0334 0 11.3537 3.0532 14.5 7.6989v-21.4975c0-2.4106-1.3792-4.61663-3.5524-5.6112l-14-6.40705c-.1473-.06743-.2967-.12848-.4476-.18315v26.3501c1.1309-.2296 2.3014-.3501 3.5-.3501z"/><path d="m10.4476 4.01374 9.5524 4.37161v45.61465c-.1509-.0547-.3003-.1157-.4476-.1832l-14.00002-6.407c-2.17323-.9946-3.55238-3.2006-3.55238-5.6113v-32.17351c0-4.4016 4.43311-7.44848 8.4476-5.61125z"/><path clip-rule="evenodd" d="m32 46c0-7.732 6.268-14 14-14s14 6.268 14 14-6.268 14-14 14-14-6.268-14-14zm21 0c0 1.1046-.8954 2-2 2h-3v3c0 1.1046-.8954 2-2 2s-2-.8954-2-2v-3h-3c-1.1046 0-2-.8954-2-2s.8954-2 2-2h3v-3c0-1.1046.8954-2 2-2s2 .8954 2 2v3h3c1.1046 0 2 .8954 2 2z" fill-rule="evenodd"/></g></svg>