<svg enable-background="new 0 0 512 512" viewBox="0 0 512 512" xmlns="http://www.w3.org/2000/svg" xmlns:xlink="http://www.w3.org/1999/xlink"><linearGradient id="SVGID_1_" gradientUnits="userSpaceOnUse" x1="47.384" x2="472.934" y1="489.224" y2="63.674"><stop offset="0" stop-color="#ff58ff"/><stop offset="1" stop-color="#0075ce"/></linearGradient><g id="Layer_10"><path d="m245.368 288.177c-4.581 10.246-18.081 31.987-40.498 65.228h43.814v27.364h-87.92l.028-22.902c26.038-42.688 41.517-69.11 46.431-79.254 4.91-10.144 7.364-18.06 7.364-23.742 0-4.364-.741-7.614-2.228-9.763-1.487-2.15-3.747-3.222-6.781-3.222-3.038 0-5.299 1.189-6.785 3.57-1.487 2.377-2.228 7.103-2.228 14.174v15.265h-35.802v-5.85c0-8.983.463-16.073 1.385-21.263.922-5.186 3.2-10.293 6.827-15.316 3.622-5.019 8.337-8.821 14.14-11.397 5.799-2.577 12.755-3.867 20.865-3.867 15.891 0 27.905 3.951 36.047 11.848s12.213 17.893 12.213 29.987c.001 9.186-2.287 18.899-6.872 29.14zm124.732 36.979h11.375v27.359h-11.375v28.255h-39.952v-28.255h-47.474v-27.359l34.519-104.881h52.907zm-39.952-68.302-17.656 68.302h17.656zm155.671-162.165v69.258 124.407 81.068 66.863c0 24.317-19.945 44.098-44.462 44.098h-307.787c-11.025 13.965-28.042 22.953-47.179 22.953-33.257 0-60.209-27.024-60.209-60.37 0-22.381 12.185-41.875 30.242-52.295v-102.317-124.406-69.259c0-24.317 19.945-44.098 44.462-44.098h58.158v-14.504c0-15.118 12.393-27.422 27.621-27.422s27.621 12.303 27.621 27.422v14.505h113.67v-14.505c0-15.118 12.388-27.422 27.617-27.422 15.228 0 27.621 12.303 27.621 27.422v14.505h58.163c24.517 0 44.462 19.78 44.462 44.097zm-142.53-44.097h24.572v-14.505c0-6.663-5.51-12.089-12.288-12.089-6.773 0-12.283 5.425-12.283 12.089v14.505zm-168.913 0h24.577v-14.505c0-6.663-5.51-12.089-12.288-12.089s-12.288 5.425-12.288 12.089v14.505zm-102.62 105.689h398.73v-61.592c0-15.862-13.067-28.764-29.129-28.764h-65.78c-.017 0-.032.005-.049.005s-.032-.005-.049-.005h-32.189v19.511c0 6.663 5.51 12.089 12.283 12.089h4.836c4.233 0 7.667 3.434 7.667 7.667s-3.434 7.667-7.667 7.667h-4.836c-15.228 0-27.617-12.303-27.617-27.422v-19.512h-121.288c-.017 0-.032.005-.049.005s-.032-.005-.049-.005h-32.194v19.511c0 6.663 5.51 12.089 12.288 12.089h4.837c4.233 0 7.667 3.434 7.667 7.667s-3.434 7.667-7.667 7.667h-4.837c-15.228 0-27.621-12.303-27.621-27.422v-19.512h-58.158c-16.062 0-29.129 12.902-29.129 28.764zm21.867 280.538v-26.169c0-4.233-3.434-7.667-7.667-7.667s-7.667 3.434-7.667 7.667v33.836c0 4.233 3.434 7.667 7.667 7.667h24.347c4.233 0 7.667-3.434 7.667-7.667s-3.434-7.667-7.667-7.667zm376.863-.535v-49.864l-60.404 53.348c-.136.12-.315.167-.459.277-.537.42-1.113.79-1.751 1.055-.167.067-.337.102-.508.158-.717.242-1.472.397-2.266.415-.032 0-.06.017-.092.017h-258.489c.009.428.064.844.064 1.274 0 7.804-1.526 15.238-4.214 22.085h298.99c16.062 0 29.129-12.902 29.129-28.765zm-7.37-63.812h-50.519v44.619zm7.37-84.118v-116.74h-398.73v116.74 96.129c4.693-1.177 9.577-1.87 14.635-1.87 27.487 0 50.625 18.501 57.827 43.744h253.047v-54.379c0-8.181 6.648-14.839 14.824-14.839h58.397z" fill="url(#SVGID_1_)"/></g><g id="Layer_1"/></svg>