<svg id="Capa_1" enable-background="new 0 0 512 512" height="512" viewBox="0 0 512 512" width="512" xmlns="http://www.w3.org/2000/svg"><g><path d="m113.687 403.306-38.235 34.174 31.418 13.895 20.074-21.548z" fill="#d83131"/><g fill="#d83131"><path d="m206.739 220.097c-.026-.07-.053-.14-.082-.209-1.436-3.492-4.802-5.748-8.577-5.748-.002 0-.005 0-.008 0-3.778.003-7.144 2.265-8.576 5.762-.024.058-.047.118-.069.177l-25.634 67.305c-1.519 3.987.483 8.451 4.471 9.97 3.982 1.52 8.451-.482 9.97-4.471l4.489-11.786h30.52l4.44 11.764c1.167 3.094 4.108 5 7.229 5 .906 0 1.829-.161 2.727-.5 3.992-1.506 6.007-5.964 4.5-9.957zm-18.131 45.547 9.445-24.798 9.358 24.798z"/><path d="m282.95 282.35c-.015 0-.029 0-.044 0-5.592.031-11.599.053-16.135.057v-60.54c0-4.268-3.459-7.726-7.726-7.726-4.268 0-7.726 3.459-7.726 7.726v68.209c0 3.766 2.714 6.983 6.427 7.617.554.094 1.005.171 8.485.171 3.645 0 8.958-.018 16.763-.061 4.267-.024 7.706-3.502 7.683-7.77-.026-4.253-3.481-7.683-7.727-7.683z"/><path d="m340.988 282.35c-.015 0-.029 0-.044 0-5.592.031-11.599.053-16.135.057v-60.54c0-4.268-3.459-7.726-7.726-7.726-4.268 0-7.726 3.459-7.726 7.726v68.209c0 3.766 2.714 6.983 6.427 7.617.554.094 1.005.171 8.485.171 3.645 0 8.958-.018 16.763-.061 4.267-.024 7.706-3.502 7.683-7.77-.026-4.253-3.48-7.683-7.727-7.683z"/></g><path d="m436.548 74.52c-45.503-45.271-107.929-73.547-176.961-74.496-141.803-1.947-258.896 112.892-259.584 254.707-.289 59.635 19.823 114.555 53.747 158.21l-12.725 12.725c-2.486 2.486-1.067 6.743 2.414 7.241l64.765 9.252c5.632.805 10.459-4.023 9.654-9.654l-9.252-64.765c-.497-3.481-4.755-4.9-7.241-2.414l-7.497 7.497c-1.885 1.886-5.022 1.601-6.538-.593-22.245-32.218-35.507-71.115-36.141-113.078-1.693-112.208 88.174-205.563 200.369-207.939 57.046-1.208 108.919 20.919 146.755 57.481z" fill="#fe950d"/><g><path d="m424.845 84.979 11.703-10.459c-45.503-45.271-107.929-73.547-176.961-74.496-4.808-.066-9.584.014-14.331.213 71.202 3.145 134.886 35.208 179.589 84.742z" fill="#fa6f0c"/></g><path d="m436.548 74.52c-10.49-10.436-21.889-19.956-34.051-28.459-9.306.02-18.145 4.068-24.259 11.118-6.121 7.058-8.874 16.414-7.552 25.668l.542 3.797c9.651 6.58 18.713 13.96 27.085 22.05z" fill="#fa6f0c"/><path d="m460.52 102.024c-1.287-1.707-1.141-4.094.371-5.606l10.084-10.084c2.486-2.486 1.067-6.743-2.413-7.241l-64.765-9.252c-5.632-.804-10.459 4.023-9.654 9.655l9.252 64.765c.497 3.481 4.755 4.9 7.241 2.414l7.497-7.497c1.886-1.886 5.023-1.602 6.538.593 22.244 32.217 35.506 71.112 36.141 113.073 1.697 112.207-88.168 205.565-200.363 207.944-57.048 1.21-108.923-20.918-146.76-57.481l4.171 29.198c.805 5.632-4.023 10.459-9.654 9.655l-32.751-4.679c45.503 45.271 107.928 73.547 176.961 74.496 141.802 1.948 258.896-112.892 259.584-254.706.28-58.293-18.93-112.082-51.48-155.247z" fill="#d83131"/><g fill="#c41926"><path d="m460.52 102.024c-1.287-1.707-1.141-4.094.371-5.606l10.084-10.084c2.486-2.486 1.067-6.743-2.413-7.241l-20.134-2.876c3.063.85 4.198 4.772 1.851 7.119l-13.082 13.082c-1.512 1.512-1.658 3.899-.371 5.606 32.549 43.165 51.759 96.954 51.477 155.246-.663 136.658-109.426 248.249-244.225 254.441 2.768.127 5.544.226 8.335.265 141.802 1.948 258.896-112.892 259.584-254.706.283-58.292-18.927-112.081-51.477-155.246z"/><path d="m117.858 432.504c.805 5.632-4.023 10.459-9.654 9.655l-32.751-4.679c10.49 10.436 21.888 19.956 34.05 28.459 9.306-.02 18.145-4.068 24.259-11.118 6.122-7.058 8.874-16.413 7.552-25.668l-.542-3.797c-9.651-6.58-18.713-13.96-27.085-22.05z"/></g></g></svg>