<svg id="Layer_1" enable-background="new 0 0 512 512" height="512" viewBox="0 0 512 512" width="512" xmlns="http://www.w3.org/2000/svg"><path clip-rule="evenodd" d="m277.68 31.724v195.02h213.684c3.002 0 5.585-1.179 7.553-3.446 1.966-2.266 2.773-4.989 2.351-7.96-15.07-106.202-103.998-188.634-213.133-193.606-2.831-.129-5.313.803-7.363 2.761-2.049 1.957-3.092 4.396-3.092 7.231zm20.607 236.234 131.864 131.863c2.004 2.004 4.467 2.991 7.301 2.926 2.834-.066 5.249-1.165 7.159-3.259 29.817-32.697 50.155-74.188 56.672-120.126.422-2.971-.382-5.694-2.349-7.96s-4.55-3.444-7.551-3.444zm90.316 163.397c-40.14 36.604-93.533 58.925-152.139 58.925-124.738 0-225.857-101.119-225.857-225.857 0-121.233 95.517-220.157 215.401-225.619 2.831-.129 5.313.804 7.363 2.761 2.05 1.958 3.093 4.397 3.093 7.232v215.626l152.471 152.471c2.004 2.004 2.992 4.468 2.926 7.302-.064 2.834-1.163 5.249-3.258 7.159zm-278.458-84.151c4.996 4.713 9.561 8.5 15.064 11.284 3.277 1.657 6.722 2.887 10.549 3.646l.212 8.796c.129 5.501 4.694 9.856 10.195 9.727s9.856-4.694 9.727-10.195l-.206-8.516c7.887-1.718 14.979-5.388 20.606-10.413 8.25-7.366 13.353-17.604 13.353-28.966 0-11.361-5.103-21.599-13.352-28.966-7.958-7.106-18.843-11.502-30.766-11.502-6.919 0-13.095-2.425-17.485-6.346-4.098-3.66-6.634-8.657-6.634-14.122h-.039c0-5.441 2.55-10.44 6.673-14.122 4.39-3.921 10.566-6.346 17.485-6.346v-.039c3.388 0 8.576 1.441 13.477 3.721 3.894 1.811 7.196 3.924 8.472 5.865 3.02 4.595 9.194 5.872 13.789 2.851 4.595-3.02 5.872-9.194 2.851-13.789-3.487-5.305-9.859-9.846-16.753-13.053-3.859-1.795-8.037-3.239-12.032-4.199l-.248-10.374c-.129-5.501-4.694-9.856-10.195-9.727s-9.856 4.694-9.727 10.195l.23 9.632c-7.897 1.716-14.997 5.388-20.631 10.418-8.225 7.345-13.313 17.581-13.314 28.966h-.039c0 11.362 5.103 21.599 13.352 28.966 7.958 7.106 18.842 11.502 30.766 11.502 6.919 0 13.095 2.425 17.485 6.346 4.098 3.66 6.634 8.657 6.634 14.122s-2.535 10.462-6.634 14.122c-4.39 3.921-10.566 6.346-17.485 6.346-4.777 0-8.307-.827-11.333-2.358-3.358-1.699-6.622-4.46-10.377-8.003-4.013-3.775-10.327-3.583-14.102.43-3.773 4.012-3.581 10.326.432 14.101z" fill-rule="evenodd"/></svg>