<svg id="GUIDE_TO_DELETE" enable-background="new 0 0 128 128" height="512" viewBox="0 0 128 128" width="512" xmlns="http://www.w3.org/2000/svg"><g><path d="m124 64c0 5.12-6.29 9.34-7.55 14.06-1.3 4.88 1.99 11.68-.48 15.95-2.51 4.34-10.06 4.86-13.58 8.38s-4.04 11.07-8.38 13.58c-4.27 2.47-11.07-.82-15.95.48-4.72 1.26-8.94 7.55-14.06 7.55s-9.34-6.29-14.06-7.55c-4.88-1.3-11.68 1.99-15.95-.48-4.34-2.51-4.86-10.06-8.38-13.58s-11.07-4.04-13.58-8.38c-2.47-4.27.82-11.07-.48-15.95-1.26-4.72-7.55-8.94-7.55-14.06s6.29-9.34 7.55-14.06c1.3-4.88-1.99-11.68.48-15.95 2.51-4.34 10.06-4.86 13.58-8.38s4.04-11.07 8.38-13.58c4.27-2.47 11.07.82 15.95-.48 4.72-1.26 8.94-7.55 14.06-7.55s9.34 6.29 14.06 7.55c4.88 1.3 11.68-1.99 15.95.48 4.34 2.51 4.86 10.06 8.38 13.58s11.07 4.04 13.58 8.38c2.47 4.27-.82 11.07.48 15.95 1.26 4.72 7.55 8.94 7.55 14.06z" fill="#2568ef"/><path d="m81.34 46.12-22.84 22.84-11.84-11.83c-2.57-2.57-6.74-2.57-9.31 0-2.57 2.57-2.57 6.74 0 9.31l16.61 16.61c2.5 2.5 6.56 2.5 9.06 0l27.62-27.62c2.57-2.57 2.57-6.74 0-9.31-2.57-2.57-6.73-2.57-9.3 0z" fill="#fffcee"/></g></svg>