<svg height="512" viewBox="0 0 24 24" width="512" xmlns="http://www.w3.org/2000/svg"><g id="Flat_Color" data-name="Flat Color"><path d="m15 4h-6a1 1 0 0 1 0-2h6a1 1 0 0 1 0 2z" fill="#e63946"/><path d="m15 22h-6a4 4 0 0 1 -4-4v-12h14v12a4 4 0 0 1 -4 4z" fill="#e63946"/><path d="m20 8h-16a1 1 0 0 1 0-2h16a1 1 0 0 1 0 2z" fill="#c9273a"/><g fill="#edebea"><path d="m10 18a1 1 0 0 1 -1-1v-6a1 1 0 0 1 2 0v6a1 1 0 0 1 -1 1z"/><path d="m14 18a1 1 0 0 1 -1-1v-6a1 1 0 0 1 2 0v6a1 1 0 0 1 -1 1z"/></g></g></svg>