<svg id="Layer_1" enable-background="new 0 0 53 53" height="512" viewBox="0 0 53 53" width="512" xmlns="http://www.w3.org/2000/svg"><g id="_x31_8"><g><g><g><path d="m9.1588106 7.5165162v10.9195557h-6.6182079v-10.1136985h-.0201664v-2.5284247c0-1.8573907 1.4981489-3.2939487 3.2940101-3.2939487 1.8131933 0 3.283927 1.4706719 3.283927 3.2939487v1.7225676h.0604372z" fill="#c6c6f7"/></g></g><g><g><g><g><g><g><path d="m35.4773941 14.435564v33.087616c0 1.6419907-1.33218 2.9741669-2.9741669 2.9741669h-25.983066c-1.6419888 0-2.9741678-1.3321762-2.9741678-2.9741669v-33.087616c0-1.6419888 1.3321791-2.9741678 2.9741678-2.9741678h25.9830666c1.6419863 0 2.9741663 1.3321791 2.9741663 2.9741678z" fill="#5b5e8b"/></g></g><g><g><path d="m8.159 12.855h22.701v1.068h-22.701z" fill="#312e4b"/></g></g><g><g><path d="m8.5421762 50.5h-2.0227174c-1.6423216 0-2.9691472-1.336113-2.9691472-2.9784355v-33.0873413c0-1.6422653 1.3268256-2.9690914 2.9691472-2.9690914h2.0227175c-1.6423216 0-2.978435 1.3268261-2.978435 2.9690914v33.0873413c-.0000001 1.6423225 1.3361134 2.9784355 2.9784349 2.9784355z" fill="#312e4b"/></g></g><g><g><path d="m31.6357613 21.6850986v-5.3906803c0-.5475283-.443861-.9913883-.9913902-.9913883h-22.2653552c-.5475292 0-.9913893.4438601-.9913893.9913883v5.3906803c0 .5475292.4438601.9913883.9913893.9913883h22.2653551c.5475293.0000001.9913903-.443859.9913903-.9913883z" fill="#deddff"/></g></g><g><g><path d="m10.1296253 22.67169h-1.7495842c-.5443168 0-.9913979-.4374123-.9913979-.991457v-5.3848495c0-.5443153.4470811-.991456.9913979-.991456h1.7495842c-.5539865 0-.9913979.4471407-.9913979.991456v5.3848495c.0000001.5540447.4374114.991457.9913979.991457z" fill="#c6c6f7"/></g></g><g><g><path d="m13.4297552 26.8233376v3.0254688c0 .7018356-.5695114 1.2703133-1.2703133 1.2703133h-3.0265045c-.7018614 0-1.2703128-.5684776-1.2703128-1.2703133v-3.0254688c0-.7018356.5684514-1.2703133 1.2703128-1.2703133h3.0265045c.7008019 0 1.2703133.5684776 1.2703133 1.2703133z" fill="#46cc6b"/></g></g><g><g><path d="m10.4071741 31.117094h-1.2711573c-.7051792 0-1.2711568-.5659771-1.2711568-1.2711563v-3.0248165c0-.6958904.5659776-1.2711563 1.2711568-1.2711563h1.2711573c-.6958914 0-1.2711573.5752659-1.2711573 1.2711563v3.0248165c0 .7051792.5752659 1.2711563 1.2711573 1.2711563z" fill="#179c5f"/></g></g><g><g><path d="m13.4274387 34.7400169v3.0228806c0 .7012329-.5690231 1.2692261-1.2692251 1.2692261h-3.0239124c-.7012606 0-1.2692251-.5679932-1.2692251-1.2692261v-3.0228806c0-.7012329.5679646-1.2692261 1.2692251-1.2692261h3.0239124c.700202.0000001 1.2692251.5679932 1.2692251 1.2692261z" fill="#deddff"/></g></g><g><g><path d="m10.4480152 39.0362167h-1.3177194c-.6970329 0-1.2699871-.5729561-1.2699871-1.269989v-3.0269051c0-.6970901.5729542-1.269989 1.2699871-1.269989h1.3177195c-.7065916 0-1.2699881.5728989-1.2699881 1.269989v3.0269051c0 .697033.5633964 1.269989 1.269988 1.269989z" fill="#c6c6f7"/></g></g><g><g><path d="m13.4283876 42.6549339v3.0239334c0 .7014771-.5692215 1.2696648-1.2696667 1.2696648h-3.0249643c-.7015038 0-1.2696667-.5681877-1.2696667-1.2696648v-3.0239334c0-.7014771.5681629-1.2696648 1.2696667-1.2696648h3.0249643c.7004452.0000001 1.2696667.5681878 1.2696667 1.2696648z" fill="#deddff"/></g></g><g><g><path d="m10.4563169 46.9498062h-1.3263626c-.7016048 0-1.2686968-.5670319-1.2686968-1.2686386v-3.0275764c0-.7016068.5670919-1.2686996 1.2686968-1.2686996h1.3263626c-.7016058 0-1.2686968.5670929-1.2686968 1.2686996v3.0275764c.0000001.7016068.5670911 1.2686386 1.2686968 1.2686386z" fill="#c6c6f7"/></g></g><g><g><path d="m22.2952595 26.8233376v3.0254688c0 .7018356-.5695114 1.2703133-1.2703133 1.2703133h-3.0265045c-.7018623 0-1.2703133-.5684776-1.2703133-1.2703133v-3.0254688c0-.7018356.5684509-1.2703133 1.2703133-1.2703133h3.0265045c.7008019 0 1.2703133.5684776 1.2703133 1.2703133z" fill="#65b9ff"/></g></g><g><g><path d="m22.2952595 34.7387581v3.0254707c0 .7018356-.5695114 1.2703133-1.2703133 1.2703133h-3.0265045c-.7018623 0-1.2703133-.5684776-1.2703133-1.2703133v-3.0254707c0-.7018356.5684509-1.2703133 1.2703133-1.2703133h3.0265045c.7008019 0 1.2703133.5684777 1.2703133 1.2703133z" fill="#deddff"/></g></g><g><g><path d="m22.2952595 42.6541824v3.0254707c0 .7018356-.5695114 1.2703133-1.2703133 1.2703133h-3.0265045c-.7018623 0-1.2703133-.5684776-1.2703133-1.2703133v-3.0254707c0-.7018356.5684509-1.2703133 1.2703133-1.2703133h3.0265045c.7008019.0000001 1.2703133.5684777 1.2703133 1.2703133z" fill="#deddff"/></g></g><g><g><path d="m31.1607628 26.8233376v3.0254688c0 .7018356-.5695114 1.2703133-1.2703133 1.2703133h-3.0265045c-.7018604 0-1.2703133-.5684776-1.2703133-1.2703133v-3.0254688c0-.7018356.5684528-1.2703133 1.2703133-1.2703133h3.0265045c.7008019 0 1.2703133.5684776 1.2703133 1.2703133z" fill="#e83d62"/></g></g><g><g><path d="m19.270443 31.117094h-1.2711582c-.7051792 0-1.2711563-.5659771-1.2711563-1.2711563v-3.0248165c0-.6958904.5659771-1.2711563 1.2711563-1.2711563h1.2711582c-.6958923 0-1.2711582.5752659-1.2711582 1.2711563v3.0248165c-.0000001.7051792.5752658 1.2711563 1.2711582 1.2711563z" fill="#3e7fff"/></g></g><g><g><path d="m28.1359463 31.117094h-1.2711563c-.7051792 0-1.2711582-.5659771-1.2711582-1.2711563v-3.0248165c0-.6958904.565979-1.2711563 1.2711582-1.2711563h1.2711563c-.6958923 0-1.2711563.5752659-1.2711563 1.2711563v3.0248165c0 .7051792.5752639 1.2711563 1.2711563 1.2711563z" fill="#ce2955"/></g></g><g><g><path d="m19.315834 39.0362167h-1.3177185c-.6970329 0-1.2699871-.5729561-1.2699871-1.269989v-3.0269051c0-.6970901.5729542-1.269989 1.2699871-1.269989h1.3177185c-.7065907 0-1.2699871.5728989-1.2699871 1.269989v3.0269051c0 .697033.5633965 1.269989 1.2699871 1.269989z" fill="#c6c6f7"/></g></g><g><g><path d="m19.315834 46.9503403h-1.3177185c-.6970329 0-1.2699871-.5729523-1.2699871-1.2699852v-3.0269089c0-.6970901.5729542-1.2699852 1.2699871-1.2699852h1.3177185c-.7065907 0-1.2699871.5728951-1.2699871 1.2699852v3.0269089c0 .6970329.5633965 1.2699852 1.2699871 1.2699852z" fill="#c6c6f7"/></g></g></g></g><g><g><path d="m30.5742016 39.7284317c0 .2725716-.2208691.4934425-.4934444.4934425h-1.223074v1.2230759c0 .2725716-.2208691.4934425-.4934425.4934425-.2725754 0-.4934444-.220871-.4934444-.4934425v-1.2230759h-1.223074c-.2725754 0-.4934406-.220871-.4934406-.4934425 0-.1359673.0555363-.2598076.1442623-.3491783.0893707-.0893669.2125721-.144268.3491783-.144268h1.223074v-1.2230721c0-.2725754.2208691-.4934425.4934444-.4934425.1359692 0 .2598095.0555382.3491745.144268.0893707.0893669.144268.2125664.144268.3491745v1.2230721h1.223074c.2725753 0 .4934444.2208709.4934444.4934463z" fill="#deddff"/></g></g></g></g><g><g><path d="m29.8438034 5.7901983v8.1329632h-20.7411909v-8.1329632c0-1.8160565-1.473546-3.2896018-3.2922435-3.2896018h20.7411919c1.8186974 0 3.2922425 1.4735453 3.2922425 3.2896018z" fill="#deddff"/></g></g><g fill="#65b9ff"><g><path d="m16.9817867 19.2744884c-.0086174-1.2313671.4692154-2.2804184 1.703125-2.2890625 1.2221203-.008606 1.7266941 1.0274582 1.7353516 2.2646484.0086021 1.229248-.4743061 2.2808914-1.7041016 2.2895508-1.2328758.0086365-1.7257518-1.0327319-1.734375-2.2651367zm2.8613282-.0200195c-.0062122-.8610325-.2854004-1.7357426-1.1542969-1.7299805-.8671608.0057659-1.134552.8825932-1.1298828 1.7456055.0062389.8712578.2861404 1.7425728 1.1542969 1.7368164.8712463-.0057773 1.1360664-.8888969 1.1298828-1.7524414z"/><path d="m18.7005367 21.5899181c-1.2429466 0-1.7598572-1.0571213-1.7685547-2.3149414-.0086803-1.2525349.4845238-2.330698 1.7529297-2.3393555.0048828 0 .0107422-.0004883.015625-.0004883 1.2516842 0 1.7609386 1.0727863 1.7695313 2.3144531.0087357 1.2623596-.4969368 2.3312206-1.7539063 2.3398438-.0048828.0000001-.0107422.0004883-.015625.0004883zm.0009766-4.5546875c-.0058594 0-.0107422 0-.0166016 0-1.2045708.0087452-1.6618805 1.0412617-1.6533203 2.2387695.0085125 1.1943703.4791336 2.2158203 1.6689453 2.2158203h.015625c1.2045212-.008791 1.6627865-1.0507545 1.6542969-2.2392578-.0084267-1.1804618-.4739208-2.215332-1.6689453-2.215332zm.0029297 4.0214844c-.8936615 0-1.1889839-.8912792-1.1953125-1.7861328-.0047894-.8979263.2850475-1.7902069 1.1796875-1.7958984h.0087891c.8885651 0 1.188921.8830223 1.1953125 1.7792969.0064068.9058743-.2853394 1.79706-1.1796875 1.8027344-.0029297-.0000001-.0058594-.0000001-.0087891-.0000001zm-.006836-3.4824219c-.0029297 0-.0058594 0-.0087891 0-.8329792.005785-1.0847034.8596363-1.0800781 1.6953125.0060883.8311787.2637596 1.6875 1.0957031 1.6875h.0087891c.8343124-.0057774 1.0862255-.8636074 1.0800781-1.7021484-.0061054-.8265476-.2655773-1.6806641-1.0957031-1.6806641z"/></g><g><path d="m21.1429195 21.122633v-.038086c-.0019016-.1890888.1523075-.3553982.3525391-.3574219l.0634766-.0004883c.1968498-.0009842.3574219.1571941.3574219.3525391l.0009766.0380859c0 .1979465-.1583652.3569298-.3525391.3579102l-.0634766.0004883c-.195961.0019608-.3564205-.1552353-.3583985-.3530273z"/><path d="m21.4974117 21.525465c-.2202053 0-.4023209-.1770039-.4042969-.4023438v-.0385742c-.0019608-.2195454.1775951-.4052277.4013672-.4072266l.0644531-.0004883h.0019531c.223793 0 .4052734.1792564.4052734.4023438l.0009766.0366211c0 .2306786-.1834183.4082108-.4023438.4091797l-.0634764.0004883c-.0009766 0-.0029297 0-.0039063 0zm.0634766-.7490234c-.0009766 0-.0009766 0-.0019531 0l-.0634766.0004883c-.1700001.0019779-.3046513.1432514-.3027344.3071289v.0385742c.0019531.1689281.1392822.3032227.3046875.3032227h.0029297l.0644531-.0004883c.1641197-.0009537.3027344-.1349144.3027344-.3081055l-.0009766-.0366211c.0000001-.1684818-.1377353-.3041992-.305664-.3041992z"/></g><g><path d="m22.6145992 19.2349377c-.0086021-1.229208.4679813-2.2804089 1.703125-2.2890625 1.2226276-.0086098 1.7266941 1.0281219 1.7353516 2.2651367.0085983 1.2286491-.4743061 2.2804031-1.7041016 2.2890625-1.2347488.0086498-1.7257671-1.0349445-1.734375-2.2651367zm2.8613282-.0200196c-.0062122-.8610325-.2854004-1.7357426-1.1542969-1.7299805-.8643703.006897-1.1345901.8761387-1.1298828 1.7460938.0061855.8637772.2831001 1.7432613 1.1542969 1.7363281.8712463-.0057773 1.1360664-.8888969 1.1298828-1.7524414z"/><path d="m24.3333492 21.5503674c-1.2504387 0-1.759882-1.06073-1.7685547-2.3149414-.0086937-1.2545033.4863777-2.3307247 1.7529297-2.3393555.0048828 0 .0107422-.0004883.015625-.0004883 1.2498512 0 1.7609215 1.0699444 1.7695313 2.3149414.0086937 1.2553978-.4927769 2.3307037-1.7539063 2.3393555-.0048828 0-.0107422.0004883-.015625.0004883zm.0009766-4.5546875c-.0058594 0-.0107422 0-.0166016 0-1.2015095.0087223-1.6619091 1.0372219-1.6533203 2.2387695.0084972 1.1921062.4767532 2.2158203 1.6689453 2.2158203h.015625c1.1945839-.0087185 1.662899-1.0353527 1.6542969-2.2387695-.0084515-1.1848984-.4764786-2.2158203-1.6689453-2.2158203zm.0009766 4.0214843c-.8896122 0-1.1870098-.8887939-1.1933594-1.7856445-.0047817-.8964653.2832432-1.7895432 1.1796875-1.7963867h.0087891c.8885651 0 1.188921.8830223 1.1953125 1.7792969.0064068.9058743-.2853394 1.79706-1.1796875 1.8027344-.0029297-.0000001-.006836-.0000001-.0107422-.0000001zm-.0048829-3.4824218c-.0029297 0-.0058594 0-.0087891 0-.8319607.0069332-1.0847206.8563595-1.0800781 1.6958008.0060654.8271446.2626095 1.6870117 1.09375 1.6870117h.0107422c.8343124-.0057774 1.0862255-.8636074 1.0800781-1.7021484-.0061054-.8265477-.2655773-1.6806641-1.0957031-1.6806641z"/></g><g><path d="m26.5979977 19.2071056c-.0086174-1.2313671.4692154-2.2804184 1.703125-2.2890625 1.2221203-.008606 1.7266941 1.0274582 1.7353516 2.2646484.0086021 1.229248-.4743061 2.2808914-1.7041016 2.2895508-1.2328759.0086365-1.7257519-1.032732-1.734375-2.2651367zm2.8613281-.0200195c-.0062122-.8610325-.2854004-1.7357426-1.1542969-1.7299805-.8671608.0057659-1.134552.8825932-1.1298828 1.7456055.0062389.8712578.2861404 1.7425728 1.1542969 1.7368164.8712463-.0057773 1.1360664-.8888969 1.1298828-1.7524414z"/><path d="m28.3167477 21.5225353c-1.2429466 0-1.7598572-1.0571194-1.7685547-2.3149414-.0086803-1.2525349.4845238-2.330698 1.7529297-2.3393555.0048828 0 .0107422-.0004883.015625-.0004883 1.2502213 0 1.7609253 1.070118 1.7695313 2.3144531.0086975 1.2560005-.4927769 2.331192-1.7539063 2.3398438-.0048828 0-.0107422.0004883-.015625.0004883zm.0009765-4.5546875c-.0058594 0-.0107422 0-.0166016 0-1.2045708.0087452-1.6618805 1.0412617-1.6533203 2.2387695.0085125 1.1943703.4791336 2.2158203 1.6689453 2.2158203h.015625c1.1968384-.0087357 1.662878-1.0387669 1.6542969-2.2392578-.0084514-1.1848983-.4768161-2.215332-1.6689453-2.215332zm.0029297 4.0214844c-.8936615 0-1.1889839-.8912792-1.1953125-1.7861328-.0047894-.8979263.2850475-1.7902069 1.1796875-1.7958984h.0087891c.8885651 0 1.188921.8830223 1.1953125 1.7792969.0064068.9058743-.2853394 1.79706-1.1796875 1.8027344-.0029297-.0000001-.0058594-.0000001-.0087891-.0000001zm-.0068359-3.4824219c-.0029297 0-.0058594 0-.0087891 0-.8329792.005785-1.0847034.8596363-1.0800781 1.6953125.0060883.8311787.2637596 1.6875 1.0957031 1.6875h.0087891c.8343124-.0057774 1.0862255-.8636074 1.0800781-1.7021484-.0061054-.8265476-.2655773-1.6806641-1.0957031-1.6806641z"/></g></g><g><g fill="#e83d62"><path d="m12.8216295 9.0752697v.4238281c0 .1001072-.0694895.1787109-.1855469.1787109-.1012535 0-.1787109-.0643873-.1787109-.1787109v-.4238281c-.4296875-.027832-.8320313-.1210938-1.2050781-.2802734-.0978823-.0409508-.1679688-.142581-.1679688-.2451172 0-.1751213.169755-.3081379.3583984-.2265625.3222656.1430664.6601563.2226563 1.0146484.2387695v-1.3725581c-.6922569-.1836858-1.3310547-.4292903-1.3310547-1.1699219 0-.6045737.4536276-1.1429014 1.3310547-1.2172852v-.4174804c0-.0996289.0703087-.1850586.1787109-.1850586.1075554 0 .1855469.0842376.1855469.1850586v.4116211c.3896484.0161133.7353516.081543 1.0380859.1967773.1113281.0400391.1669922.1196289.1669922.2387695 0 .153563-.1353054.3045835-.3339844.2270508-.2705078-.0957031-.5615234-.1494141-.8710938-.1611328v1.4199219c.7625418.1808758 1.3779297.406405 1.3779297 1.199707.0000002.7161804-.6375339 1.1142392-1.3779295 1.1577144zm-.3642578-2.4467769v-1.3129882c-.4083509.0550022-.7880859.2505884-.7880859.6625977 0 .4067329.3944473.5478958.7880859.6503905zm1.2050781 1.253418c0-.3713837-.4594288-.4993162-.8408203-.6030273v1.2832026c.5605469-.0395508.8408203-.2666016.8408203-.6801753z"/><path d="m12.6360826 9.7779064c-.1522589 0-.2783203-.1042366-.2783203-.2788086v-.3310547c-.40625-.0356445-.7910156-.1298828-1.1445313-.28125-.1332378-.0546865-.2285156-.1916742-.2285156-.3369141 0-.2473764.2411995-.4270916.4980469-.3183594.2783203.1235352.5712891.1987305.875.2241211v-1.1894526c-.7235403-.2013078-1.3310547-.4834776-1.3310547-1.246582 0-.7264676.567028-1.2135611 1.3310547-1.3076172v-.3271484c0-.382957.5634766-.3701229.5634766 0v.3168945c.3613281.0224609.6884766.0893555.9736328.1982422.1494141.0532227.2314453.1713867.2314453.3320313 0 .2202396-.2003107.4250851-.4697266.3203125-.2265625-.0800781-.4746094-.1303711-.7353516-.1489258v1.2358398c.757453.1872029 1.3779297.4438796 1.3779297 1.2783203 0 .5940394-.4434385 1.1588712-1.3779297 1.2504878v.3310547c.0000001.1536608-.1126908.2788086-.2851562.2788086zm-1.4521484-1.2280273c0 .0584745.0445251.1272802.1074219.152832.3603516.1538086.7548828.2456055 1.1728516.2729492l.0927734.0058594v.5175781c0 .1129656.1650391.1024132.1650391 0v-.5180664l.09375-.0053711c.6735563-.040514 1.2841797-.3958015 1.2841797-1.058105 0-.735261-.5870905-.9326186-1.3017578-1.1025391l-.0761719-.0180664v-1.6030273l.1035156.0039063c.3183594.012207.6220703.0683594.9003906.1669922.1293688.049983.2011719-.041595.2011719-.1328125 0-.0771484-.0292969-.1191406-.1015625-.1445313-.2919922-.1113281-.6308594-.175293-1.0078125-.190918l-.0957032-.0039062v-.5078125c0-.1070409-.1650391-.1217098-.1650391 0v.5092773l-.0908203.0078125c-.8309736.0700088-1.2402344.5726008-1.2402344 1.1176758 0 .6789794.6080875.900805 1.2568359 1.0732422l.0742188.0195313v1.5541987l-.1044922-.0043945c-.3642578-.0166016-.7177734-.1000977-1.0507813-.2475586-.1155775-.0505648-.2177733.0275964-.2177733.1352539zm1.5380859.1196289v-1.5214839l.1259766.0341797c.4482059.1218276.9140625.2682815.9140625.699707 0 .3256831-.1611328.7255855-.9335938.7797847zm.1992188-1.257812v1.0405269c.5722656-.0712891.6416016-.3564453.6416016-.570312 0-.2780424-.3560486-.3846842-.6416016-.4702149zm-.3642578-.6538086-.125-.0327148c-.4486198-.116962-.8623047-.2838211-.8623047-.7470703 0-.4659519.4108934-.6989665.8740234-.7617188l.1132813-.0151367zm-.1992188-1.3237305c-.3102179.0640273-.5888672.2256913-.5888672.5439453 0 .3110385.2870674.4264259.5888672.5185547z"/></g></g><g><g><g><g><path d="m24.0457287 4.8751078c0 .181313-.151125.3323765-.3324394.3323765h-7.8849411c-.1813126 0-.3323765-.1510634-.3323765-.3323765 0-.1813135.1510639-.3324385.3323765-.3324385h7.8849411c.1813144 0 .3324394.151125.3324394.3324385z" fill="#c6c6f7"/></g></g><g><g><path d="m28.2954292 4.8751078c0 .181313-.151125.3323765-.3324394.3323765h-2.8482571c-.1813145 0-.3323784-.1510634-.3323784-.3323765 0-.1813135.1510639-.3324385.3323784-.3324385h2.8482571c.1813145 0 .3324394.151125.3324394.3324385z" fill="#c6c6f7"/></g></g></g><g><g><g><path d="m19.0090446 6.7672348c0 .1813135-.151125.332377-.3324375.332377h-2.848259c-.1813126 0-.3323765-.1510634-.3323765-.332377 0-.181313.1510639-.332438.3323765-.332438h2.848259c.1813126 0 .3324375.151125.3324375.332438z" fill="#c6c6f7"/></g></g><g><g><path d="m28.2954292 6.7672348c0 .1813135-.151125.332377-.3324394.332377h-7.8849411c-.1813126 0-.3323765-.1510634-.3323765-.332377 0-.181313.1510639-.332438.3323765-.332438h7.8849411c.1813145 0 .3324394.151125.3324394.332438z" fill="#c6c6f7"/></g></g></g><g><g><g><path d="m19.0090446 8.5443172c0 .1813135-.151125.3323765-.3324375.3323765h-2.848259c-.1813126 0-.3323765-.151063-.3323765-.3323765 0-.1813126.1510639-.3324385.3323765-.3324385h2.848259c.1813126.0000001.3324375.151126.3324375.3324385z" fill="#c6c6f7"/></g></g><g><g><path d="m28.2954292 8.5443172c0 .1813135-.151125.3323765-.3324394.3323765h-7.8849411c-.1813126 0-.3323765-.151063-.3323765-.3323765 0-.1813126.1510639-.3324385.3323765-.3324385h7.8849411c.1813145.0000001.3324394.151126.3324394.3324385z" fill="#c6c6f7"/></g></g></g><g><g><g><path d="m14.2938509 10.3213997c0 .1813135-.151125.3323774-.3324385.3323774h-2.848259c-.1813126 0-.3323765-.1510639-.3323765-.3323774 0-.1813126.1510639-.3324385.3323765-.3324385h2.848259c.1813135 0 .3324385.1511259.3324385.3324385z" fill="#c6c6f7"/></g></g><g><g><path d="m28.2954292 10.3213997c0 .1813135-.151125.3323774-.3324394.3323774h-11.0686722c-.1813145 0-.3323784-.1510639-.3323784-.3323774 0-.1813126.1510639-.3324385.3323784-.3324385h11.0686722c.1813145 0 .3324394.1511259.3324394.3324385z" fill="#c6c6f7"/></g></g></g><g><g><g><path d="m14.2938509 12.0984821c0 .1813135-.151125.3323774-.3324385.3323774h-2.848259c-.1813126 0-.3323765-.1510639-.3323765-.3323774 0-.1813126.1510639-.3324385.3323765-.3324385h2.848259c.1813135.0000001.3324385.151126.3324385.3324385z" fill="#c6c6f7"/></g></g><g><g><path d="m28.2954292 12.0984821c0 .1813135-.151125.3323774-.3324394.3323774h-7.8849411c-.1813126 0-.3323765-.1510639-.3323765-.3323774 0-.1813126.1510639-.3324385.3323765-.3324385h7.8849411c.1813145.0000001.3324394.151126.3324394.3324385z" fill="#c6c6f7"/></g></g></g></g></g><g><g><g><g><g><path d="m25.6235523 47.4613953v1.9586601c0 .5977554.4822254 1.0799446 1.0779877 1.0799446h11.4350529c.5957642 0 1.0779877-.4821892 1.0779877-1.0799446v-1.9586601c0-.5977554-.4822235-1.0799446-1.0779877-1.0799446h-11.4350529c-.3865623 0-.7273006.203228-.9165802.5100861-.1016216.1653823-.1614075.3606452-.1614075.5698585z" fill="#fcb73e"/></g></g><g><g><g><path d="m25.6235523 43.4424744v1.8590164c0 .2092247.0597858.4044914.1614075.5698738.1892796.3068428.5300179.5100861.9165802.5100861h11.4350529c.5957642 0 1.0779877-.4822006 1.0779877-1.0799599v-1.8590164c0-.5977592-.4822235-1.0799599-1.0779877-1.0799599h-11.4350529c-.3865623 0-.7253056.2032433-.914587.5100975-.1036148.1653709-.1634007.3606491-.1634007.5698624z" fill="#fcb73e"/></g></g><g><g><path d="m28.1041508 46.3831215h-1.4038429c-.3818741 0-.7300243-.2021446-.920927-.5165672-.1011066-.1572495-.1572475-.3593941-.1572475-.5615387v-1.8643417c0-.2021446.0561409-.4042892.1684875-.5727768.1909046-.3031845.527813-.5053291.909687-.5053291h1.4038429c-.381876 0-.7187843.2021446-.909687.5053291-.1123486.1684875-.1684875.3706322-.1684875.5727768v1.8643417c0 .2021446.056139.4042892.1572456.5615387.1909026.3144226.5390529.5165672.9209289.5165672z" fill="#fd982e"/></g></g><g><g><path d="m25.6235523 39.4235382v1.8590317c0 .2092094.0597858.4044876.1634007.5698586.1892815.3068581.5280247.5100861.914587.5100861h11.4350529c.5957642 0 1.0779877-.4821892 1.0779877-1.0799446v-1.8590317c0-.5977592-.4822235-1.0799484-1.0779877-1.0799484h-11.4350529c-.5957623-.0000001-1.0779877.4821891-1.0779877 1.0799483z" fill="#fcb73e"/></g></g></g><g><g><path d="m25.786953 42.872612h10.420887c.1315155 0 .2390938-.107605.2390938-.2391052v-.5419731c0-.1315002-.1075783-.2391052-.2390938-.2391052h-10.420887c.1892815.3068581.5280247.5100861.914587.5100861-.3865624-.0000001-.7253056.2032432-.914587.5100974z" fill="#fd982e"/></g></g><g><g><path d="m25.7849598 46.8915367h10.4228802c.1315155 0 .2390938-.107605.2390938-.2391052v-.5419617c0-.1315155-.1075783-.2391052-.2390938-.2391052h-10.4228802c.1892796.3068428.5300179.5100861.9165802.5100861-.3865624 0-.7273007.2032279-.9165802.510086z" fill="#fd982e"/></g></g></g><g><g><path d="m28.1041508 42.3633308h-1.4038429c-.3818741 0-.7300243-.2021446-.920927-.516571-.1011066-.1572456-.1572475-.3593903-.1572475-.5615387v-1.8643379c0-.2021446.0561409-.4042892.1684875-.5727806.1909046-.3031807.527813-.5053253.909687-.5053253h1.4038429c-.381876 0-.7187843.2021446-.909687.5053253-.1123486.1684914-.1684875.370636-.1684875.5727806v1.8643379c0 .2021484.056139.4042931.1572456.5615387.1909026.3144264.5390529.516571.9209289.516571z" fill="#fd982e"/></g></g><g><g><path d="m25.6235523 35.4037971v1.8590317c0 .2092133.0597858.4044876.1634007.5698586.1892815.3068581.5280247.5100899.914587.5100899h11.4350529c.5957642 0 1.0779877-.4821892 1.0779877-1.0799484v-1.8590317c0-.5977554-.4822235-1.0799446-1.0779877-1.0799446h-11.4350529c-.5957623-.0000001-1.0779877.4821891-1.0779877 1.0799445z" fill="#fcb73e"/></g></g><g><g><path d="m27.9451351 38.3395805h-1.2399902c-.3900146 0-.7300415-.2000122-.9200439-.5100098-.0999756-.1600342-.1599731-.3599854-.1599731-.5700073v-1.8599854c0-.5900269.4799805-1.0800171 1.0800171-1.0800171h1.2399902c-.6000366 0-1.0800171.4899902-1.0800171 1.0800171v1.8599854c0 .210022.0599976.4099731.1599731.5700073.1900024.3099976.5300293.5100098.9200439.5100098z" fill="#fd982e"/></g></g><g><g><path d="m28.1041508 50.5h-1.4038429c-.3818741 0-.7300243-.2021446-.920927-.516571-.1011066-.1572456-.1572475-.3593903-.1572475-.5615349v-1.8643417c0-.2021446.0561409-.4042892.1684875-.5727768.1909046-.3031845.527813-.5053291.909687-.5053291h1.4038429c-.381876 0-.7187843.2021446-.909687.5053291-.1123486.1684875-.1684875.3706322-.1684875.5727768v1.8643417c0 .2021446.056139.4042892.1572456.5615349.1909026.3144264.5390529.516571.9209289.516571z" fill="#fd982e"/></g></g></g><g><g><g><g><path d="m32.0690727 47.4613953v1.9586601c0 .5977554.4822235 1.0799446 1.0779877 1.0799446h11.435051c.5957642 0 1.0779877-.4821892 1.0779877-1.0799446v-1.9586601c0-.5977554-.4822235-1.0799446-1.0779877-1.0799446h-11.435051c-.3865623 0-.7273026.203228-.916584.5100861-.1016197.1653823-.1614037.3606452-.1614037.5698585z" fill="#fcb73e"/></g></g><g><g><g><path d="m32.0690727 43.4424744v1.8590164c0 .2092247.0597839.4044914.1614037.5698738.1892815.3068428.5300217.5100861.916584.5100861h11.435051c.5957642 0 1.0779877-.4822006 1.0779877-1.0799599v-1.8590164c0-.5977592-.4822235-1.0799599-1.0779877-1.0799599h-11.435051c-.3865623 0-.7253075.2032433-.9145889.5100975-.1036148.1653709-.1633988.3606491-.1633988.5698624z" fill="#fcb73e"/></g></g><g><g><path d="m34.5496712 46.3831215h-1.4038429c-.3818741 0-.7300262-.2021446-.920929-.5165672-.1011086-.1572495-.1572456-.3593941-.1572456-.5615387v-1.8643417c0-.2021446.0561371-.4042892.1684875-.5727768.1909027-.3031845.527813-.5053291.909687-.5053291h1.4038429c-.3818779 0-.7187843.2021446-.909687.5053291-.1123505.1684875-.1684914.3706322-.1684914.5727768v1.8643417c0 .2021446.0561409.4042892.1572495.5615387.1909027.3144226.5390511.5165672.920929.5165672z" fill="#fd982e"/></g></g><g><g><path d="m32.0690727 39.4235382v1.8590317c0 .2092094.0597839.4044876.1633987.5698586.1892815.3068581.5280266.5100861.9145889.5100861h11.435051c.5957642 0 1.0779877-.4821892 1.0779877-1.0799446v-1.8590317c0-.5977592-.4822235-1.0799484-1.0779877-1.0799484h-11.435051c-.5957641-.0000001-1.0779876.4821891-1.0779876 1.0799483z" fill="#fcb73e"/></g></g></g><g><g><path d="m32.2324715 42.872612h10.420887c.1315155 0 .2390938-.107605.2390938-.2391052v-.5419731c0-.1315002-.1075783-.2391052-.2390938-.2391052h-10.420887c.1892815.3068581.5280266.5100861.9145889.5100861-.3865624-.0000001-.7253075.2032432-.9145889.5100974z" fill="#fd982e"/></g></g><g><g><path d="m32.2304764 46.8915367h10.4228821c.1315155 0 .2390938-.107605.2390938-.2391052v-.5419617c0-.1315155-.1075783-.2391052-.2390938-.2391052h-10.4228821c.1892815.3068428.5300217.5100861.916584.5100861-.3865624 0-.7273026.2032279-.916584.510086z" fill="#fd982e"/></g></g></g><g><g><path d="m34.5496712 42.3633308h-1.4038429c-.3818741 0-.7300262-.2021446-.920929-.516571-.1011086-.1572456-.1572456-.3593903-.1572456-.5615387v-1.8643379c0-.2021446.0561371-.4042892.1684875-.5727806.1909027-.3031807.527813-.5053253.909687-.5053253h1.4038429c-.3818779 0-.7187843.2021446-.909687.5053253-.1123505.1684914-.1684914.370636-.1684914.5727806v1.8643379c0 .2021484.0561409.4042931.1572495.5615387.1909027.3144264.5390511.516571.920929.516571z" fill="#fd982e"/></g></g><g><g><path d="m34.5496712 50.5h-1.4038429c-.3818741 0-.7300262-.2021446-.920929-.516571-.1011086-.1572456-.1572456-.3593903-.1572456-.5615349v-1.8643417c0-.2021446.0561371-.4042892.1684875-.5727768.1909027-.3031845.527813-.5053291.909687-.5053291h1.4038429c-.3818779 0-.7187843.2021446-.909687.5053291-.1123505.1684875-.1684914.3706322-.1684914.5727768v1.8643417c0 .2021446.0561409.4042892.1572495.5615349.1909027.3144264.5390511.516571.920929.516571z" fill="#fd982e"/></g></g></g><g><g><path d="m26.2432022 38.8528748h10.420887c.1315117 0 .2390938-.107605.2390938-.2391052v-.5419731c0-.1315041-.1075821-.239109-.2390938-.239109h-10.420887c.1892796.3068581.5280247.5100899.914587.5100899-.3865623-.0000001-.7253074.2032393-.914587.5100974z" fill="#fd982e"/></g></g></g><g><g><g><path d="m50.4795647 43.694912c0 1.588028-.5483818 3.0504646-1.4623718 4.2158432-.5255737.6626015-1.1768112 1.2338562-1.9079628 1.6565742-1.1768112.6855469-2.5820694 1.0282822-4.0787468.902626-3.0962143-.2741928-5.6554108-2.7077332-6.1010056-5.7925072-.0456734-.3313026-.0685463-.662674-.0685463-.9825363 0-2.5020866 1.359581-4.6957474 3.3704033-5.8724899 1.1767426-.6855431 2.5820694-1.0282822 4.0787468-.9025536 1.6337738.1484604 3.1190147.8911171 4.2158432 2.0221863.9939728 1.0054092 1.679451 2.3193169 1.8850899 3.7702484.0457458.3313714.0685501.662674.0685501.9826089z" fill="#fcb73e"/></g></g><g><g><path d="m44.572834 50.4356461c-.5027046.0685463-1.0168457.0799828-1.5423508.0343094-3.0962143-.2741928-5.6554108-2.7077332-6.1010056-5.7925072-.0456734-.3313026-.0685463-.662674-.0685463-.9825363 0-2.5020866 1.359581-4.6957474 3.3704033-5.8724899 1.1767426-.6855431 2.5820694-1.0282822 4.0787468-.9025536.0914192.0113678.1713333.0228043.2627525.0342369-.9139862.1256599-1.7708664.4227219-2.5363235.8683167-2.0108185 1.1767426-3.3704033 3.3704033-3.3704033 5.8724899 0 .3198624.0228729.6512337.0685463.9825363.4341584 2.9933548 2.8562623 5.3812217 5.8381806 5.7581978z" fill="#fd982e"/></g></g><g opacity=".2"><g><g><path d="m50.4795647 43.694912c0 1.588028-.5483818 3.0504646-1.4623718 4.2158432-.3999176-.4455948-.9025536-.7997665-1.4052582-1.1311378-.6969795-.4798317-1.4395638-.91399-2.0108185-1.553791-.5598145-.6397972-.9368591-1.5081139-.7540894-2.3421173.1485291-.7312202.7197838-1.3139076 1.3253441-1.7708702.5940552-.445591 1.2567253-.8340759 1.7823029-1.3710175.2284431-.2399521.4227219-.5027046.5712509-.7997665.9939728 1.0054092 1.679451 2.3193169 1.8850899 3.7702484.0457458.3313712.0685501.6626738.0685501.9826087z" fill="#fff"/></g></g></g><g><g><path d="m45.0267067 46.6187286c-.3251953.1577148-.7001953.2485352-1.1269531.2734375v.6586914c0 .3673134-.5664063.3784332-.5664063 0v-.6586914c-.6679688-.043457-1.2929688-.1884766-1.8740234-.4360352-.2582741-.107048-.3508339-.4370918-.1533203-.6538086.1194611-.1301003.304348-.143074.4501953-.0791016.5009766.2226563 1.0263672.3466797 1.5771484.3710938v-2.1337891c-1.0917015-.2887573-2.0683594-.6734161-2.0683594-1.8183594 0-.9345474.6986923-1.7769203 2.0683594-1.8925781v-.6494139c0-.1568031.1128807-.2875977.2783203-.2875977.1646614 0 .2880859.1295242.2880859.2875977v.6401367c.6054688.0249023 1.1435547.1269531 1.6142578.3061523.1728516.0620117.2597656.1855469.2597656.3710938 0 .0991211-.0341797.1889648-.1025391.269043-.0942917.1111298-.2378922.1559868-.4169922.0834961-.4208984-.1484375-.8720703-.2319336-1.3544922-.2504883v2.2080078c1.1935425.2826805 2.1425781.6337891 2.1425781 1.8647461.0000002.6826286-.3919943 1.2230033-1.0156248 1.5263671zm-1.6933594-3.5302734v-2.0410156c-.6374016.0855446-1.2246094.3920364-1.2246094 1.0297852 0 .6323737.6101304.8508949 1.2246094 1.0112304zm1.8740235 1.9482422c0-.5764923-.712513-.7751389-1.3076172-.9370117v1.9946289c.8720703-.0615235 1.3076172-.4140625 1.3076172-1.0576172z" fill="#fff"/></g></g></g></g></svg>