<svg id="Layer_1" enable-background="new 0 0 100 100" viewBox="0 0 100 100" xmlns="http://www.w3.org/2000/svg"><path d="m2.5 56.659h18.349v40.841h-18.349z"/><path d="m27.952 34.463h18.349v63.037h-18.349z"/><path d="m53.403 56.659h18.349v40.841h-18.349z"/><path d="m78.855 34.463h18.349v63.037h-18.349z"/><path d="m18.18536 40.6775703c2.6635513-2.6635475 3.2554512-6.5109024 2.0716496-10.0623074l12.429903-10.9501553c2.9595032 1.7757015 6.2149544 1.7757015 9.1744537 0l12.4299087 10.9501554c-1.4797516 3.2554531-.5919037 7.398756 2.0716553 10.0623074 3.551403 3.5513992 9.4704056 3.5513992 13.0218048 0 2.6635513-2.6635513 3.255455-6.5109024 2.0716553-10.0623074l12.4299011-10.9501553c3.5513992 2.0716515 7.990654 1.4797516 10.9501572-1.4797497 3.5513992-3.5514021 3.5513992-9.4704056 0-13.0218067-3.5514069-3.5514016-9.4704056-3.5514016-13.0218048 0-2.6635513 2.6635518-3.255455 6.5109043-2.0716553 10.0623055l-12.7258606 11.2461052c-2.6635513-1.4797497-6.2149544-1.4797497-9.1744537 0l-12.429905-10.9501543c1.1837997-3.2554512.5918999-7.1028042-2.0716515-9.7663546-3.551403-3.5514019-9.4704056-3.5514019-13.0218029 0-2.3675995 2.3676004-2.9595032 6.2149515-1.7756996 9.4704027l-12.4299068 11.2461062c-3.551403-2.0716496-7.9906549-1.7756996-10.9501562 1.1837997-3.5514016 3.5514011-3.5514016 9.4704056 0 13.0218086s9.4704037 3.5514031 13.0218077 0z"/></svg>