<svg enable-background="new 0 0 32 32" height="512" viewBox="0 0 32 32" width="512" xmlns="http://www.w3.org/2000/svg"><g id="Layer_3"><path d="m21.987 6.577h-13.011c-.497 0-.9.403-.9.9s.403.9.9.9h13.012c.497 0 .9-.403.9-.9s-.404-.9-.901-.9z"/><path d="m22.887 12.551c0-.497-.403-.9-.9-.9h-13.011c-.497 0-.9.403-.9.9s.403.9.9.9h13.012c.496 0 .899-.403.899-.9z"/><path d="m8.976 16.726c-.497 0-.9.403-.9.9s.403.9.9.9h6.554c.497 0 .9-.403.9-.9s-.403-.9-.9-.9z"/><path d="m11.313 29.1h-5.569c-.768 0-1.392-.625-1.392-1.392v-23.416c0-.768.625-1.392 1.392-1.392h19.476c.767 0 1.392.625 1.392 1.392v8.545c0 .497.403.9.9.9s.9-.403.9-.9v-8.545c0-1.76-1.432-3.192-3.191-3.192h-19.477c-1.76 0-3.192 1.432-3.192 3.192v23.416c0 1.76 1.432 3.192 3.192 3.192h5.569c.497 0 .9-.403.9-.9s-.403-.9-.9-.9z"/><path d="m28.467 16.914c-1.306-1.307-3.433-1.307-4.738 0l-8.275 8.275c-.262.262-.434.594-.496.959l-.452 2.683c-.096.565.089 1.144.494 1.549.334.335.789.52 1.255.52.098 0 .196-.008.294-.025l2.681-.453c.366-.061.699-.232.961-.495l8.275-8.275c1.307-1.306 1.307-3.432.001-4.738zm-9.534 11.733-2.652.483.445-2.669 5.955-5.955 2.194 2.194zm8.261-8.268-1.047 1.048-2.194-2.194 1.048-1.048c.302-.302.7-.453 1.097-.453s.794.151 1.097.453c.604.606.604 1.589-.001 2.194z"/></g></svg>