<svg id="Laag_1" viewBox="0 0 102.05 102.05" xmlns="http://www.w3.org/2000/svg" data-name="Laag 1"><g fill="none"><path d="m20.46 20.71h22.37v22.37h-22.37z"/><path d="m59.22 58.96h22.37v22.37h-22.37z"/><path d="m59.22 20.71h22.37v22.37h-22.37z"/><path d="m20.46 58.96h22.37v22.37h-22.37z"/></g><path d="m44.83 16.71h-26.37a2 2 0 0 0 -2 2v26.37a2 2 0 0 0 2 2h26.37a2 2 0 0 0 2-2v-26.37a2 2 0 0 0 -2-2zm-2 26.37h-22.37v-22.37h22.37z" fill="#161616"/><path d="m83.59 16.71h-26.37a2 2 0 0 0 -2 2v26.37a2 2 0 0 0 2 2h26.37a2 2 0 0 0 2-2v-26.37a2 2 0 0 0 -2-2zm-2 26.37h-22.37v-22.37h22.37z" fill="#161616"/><path d="m44.83 55h-26.37a2 2 0 0 0 -2 2v26.33a2 2 0 0 0 2 2h26.37a2 2 0 0 0 2-2v-26.33a2 2 0 0 0 -2-2zm-2 26.37h-22.37v-22.37h22.37z" fill="#161616"/><path d="m83.59 55h-26.37a2 2 0 0 0 -2 2v26.33a2 2 0 0 0 2 2h26.37a2 2 0 0 0 2-2v-26.33a2 2 0 0 0 -2-2zm-2 26.37h-22.37v-22.37h22.37z" fill="#161616"/></svg>