<svg id="glipy_copy_6" viewBox="0 0 64 64" xmlns="http://www.w3.org/2000/svg" data-name="glipy copy 6"><g fill="#0071bc"><path d="m59 34.79893h-7.82c-7.92682.18409-7.91736 12.22852.00012 12.41h7.81988a1.003 1.003 0 0 0 1-1v-10.41a.99655.99655 0 0 0 -1-1zm-6.36 7.2a1 1 0 0 1 .00007-2 1 1 0 0 1 -.00007 2.00007z"/><path d="m43.24 41.269a7.98471 7.98471 0 0 1 7.93994-8.47h6.87l-.00006-2.41a7.52559 7.52559 0 0 0 -7.5-7.51h-40.34988a4.32485 4.32485 0 0 1 -2.9599-1.22 4.22513 4.22513 0 0 1 2.9599-7.19h10.32l3.92-2h-14.24a6.20533 6.20533 0 0 0 -6.2 6.19993v32.95a7.51983 7.51983 0 0 0 7.51 7.51h39.04a7.51983 7.51983 0 0 0 7.51-7.51v-2.41h-6.88a7.9465 7.9465 0 0 1 -7.94-7.93993z"/><path d="m21.64 20.879 20.05-10.22a1.00313 1.00313 0 0 1 1.35.43l4.9801 9.79a19.458 19.458 0 0 1 4.8999.31l-8.04-15.77a.99822.99822 0 0 0 -1.34-.44l-14.27 7.27c-4.74262 2.41333-12.10895 6.1892-16.93 8.63z"/><path d="m26.03 20.879h19.75l-4.07-7.99z"/></g></svg>