<svg fill="none" height="32" viewBox="0 0 32 32" width="32" xmlns="http://www.w3.org/2000/svg"><g clip-rule="evenodd" fill="rgb(0,0,0)" fill-rule="evenodd"><path d="m24.3852 14.6148c.7167-.4155 1.6345-.1713 2.05.5453l2.8625 4.9375c.4155.7167.1714 1.6346-.5453 2.0501s-1.6345.1713-2.05-.5454l-2.8625-4.9375c-.4155-.7167-.1714-1.6345.5453-2.05z"/><path d="m19.0148 17.1852c.8159-.1437 1.5938.4012 1.7375 1.217l.8875 5.0375c.1437.8159-.4011 1.5938-1.217 1.7375-.8158.1438-1.5938-.4011-1.7375-1.217l-.8875-5.0375c-.1437-.8158.4011-1.5937 1.217-1.7375z"/><path d="m12.9722 17.1726c.8159.1434 1.3611.9211 1.2177 1.737l-.8875 5.05c-.1434.8159-.9211 1.3611-1.737 1.2177s-1.3611-.921-1.2177-1.737l.8875-5.05c.1434-.8159.9211-1.3611 1.737-1.2177z"/><path d="m7.59955 14.6131c.7176.414.96377 1.3313.54984 2.0489l-2.8625 4.9625c-.41393.7176-1.33122.9637-2.04882.5498-.71761-.4139-.96378-1.3312-.54985-2.0488l2.8625-4.9625c.41393-.7176 1.33122-.9638 2.04883-.5499z"/><path d="m3.05755 11.9456c.64447-.5206 1.58889-.4201 2.10942.2244 1.9343 2.3948 5.39683 5.33 10.83313 5.33 5.4362 0 8.8987-2.9352 10.833-5.33.5206-.6445 1.465-.745 2.1095-.2244.6444.5205.7449 1.4649.2244 2.1094-2.2657 2.8051-6.5032 6.445-13.1669 6.445-6.66379 0-10.90125-3.6399-13.16696-6.445-.52053-.6445-.42006-1.5889.22441-2.1094z"/></g></svg>