<svg height="512" viewBox="0 0 48 48" width="512" xmlns="http://www.w3.org/2000/svg"><g id="Eye_on"><path d="m45.423 23.119c-.391-.538-9.703-13.175-21.423-13.175s-21.032 12.636-21.422 13.174c-.381.525-.381 1.237 0 1.763.39.538 9.702 13.175 21.422 13.175s21.032-12.637 21.423-13.174c.382-.526.382-1.238 0-1.763zm-21.423 11.937c-8.53 0-16.038-8.294-18.301-11.056 2.263-2.762 9.771-11.056 18.301-11.056s16.038 8.294 18.302 11.056c-2.264 2.762-9.772 11.056-18.302 11.056zm4.221-16.174c-.688.46-.873 1.392-.413 2.081.502.751.768 1.629.768 2.538 0 2.522-2.053 4.575-4.575 4.575s-4.575-2.053-4.575-4.575 2.052-4.575 4.575-4.575c.829 0 1.5-.671 1.5-1.5s-.671-1.5-1.5-1.5c-4.177 0-7.575 3.398-7.575 7.575s3.398 7.575 7.575 7.575 7.575-3.398 7.575-7.575c0-1.504-.44-2.958-1.273-4.205-.462-.691-1.394-.874-2.082-.414z"/></g></svg>